<svg xmlns="http://www.w3.org/2000/svg" xmlns:xlink="http://www.w3.org/1999/xlink" width="500" zoomAndPan="magnify" viewBox="0 0 375 374.999991" height="500" preserveAspectRatio="xMidYMid meet" version="1.0"><defs><g/><clipPath id="e536dfc085"><path d="M 114 76.023438 L 179 76.023438 L 179 142 L 114 142 Z M 114 76.023438 " clip-rule="nonzero"/></clipPath><clipPath id="a0ca15b47f"><path d="M 115 149 L 196 149 L 196 213.273438 L 115 213.273438 Z M 115 149 " clip-rule="nonzero"/></clipPath><clipPath id="1293366ad5"><path d="M 167 76.023438 L 248 76.023438 L 248 140 L 167 140 Z M 167 76.023438 " clip-rule="nonzero"/></clipPath></defs><g fill="#000000" fill-opacity="1"><g transform="translate(125.999082, 283.849933)"><g><path d="M 0.859375 -8.9375 L 2.71875 -8.9375 L 2.71875 -1.6875 L 6.3125 -1.6875 L 6.3125 0 L 0.859375 0 Z M 0.859375 -8.9375 "/></g></g></g><g fill="#000000" fill-opacity="1"><g transform="translate(132.491097, 283.849933)"><g><path d="M 4.796875 -6.0625 L 6.5 -6.0625 L 6.5 0 L 4.796875 0 L 4.796875 -0.4375 C 4.671875 -0.257812 4.460938 -0.117188 4.171875 -0.015625 C 3.890625 0.078125 3.609375 0.125 3.328125 0.125 C 2.773438 0.125 2.273438 -0.015625 1.828125 -0.296875 C 1.378906 -0.585938 1.019531 -0.96875 0.75 -1.4375 C 0.476562 -1.914062 0.34375 -2.445312 0.34375 -3.03125 C 0.34375 -3.613281 0.476562 -4.144531 0.75 -4.625 C 1.019531 -5.101562 1.378906 -5.484375 1.828125 -5.765625 C 2.285156 -6.046875 2.785156 -6.1875 3.328125 -6.1875 C 3.597656 -6.1875 3.878906 -6.128906 4.171875 -6.015625 C 4.460938 -5.910156 4.671875 -5.785156 4.796875 -5.640625 Z M 3.484375 -1.5625 C 3.890625 -1.5625 4.222656 -1.695312 4.484375 -1.96875 C 4.742188 -2.238281 4.875 -2.59375 4.875 -3.03125 C 4.875 -3.445312 4.742188 -3.789062 4.484375 -4.0625 C 4.222656 -4.34375 3.890625 -4.484375 3.484375 -4.484375 C 3.097656 -4.484375 2.765625 -4.34375 2.484375 -4.0625 C 2.210938 -3.789062 2.078125 -3.445312 2.078125 -3.03125 C 2.078125 -2.59375 2.210938 -2.238281 2.484375 -1.96875 C 2.765625 -1.695312 3.097656 -1.5625 3.484375 -1.5625 Z M 3.484375 -1.5625 "/></g></g></g><g fill="#000000" fill-opacity="1"><g transform="translate(139.595108, 283.849933)"><g/></g></g><g fill="#000000" fill-opacity="1"><g transform="translate(144.647114, 283.849933)"><g><path d="M 6.515625 -3.03125 L 6.515625 0 L 4.8125 0 L 4.8125 -3.03125 C 4.8125 -3.539062 4.6875 -3.910156 4.4375 -4.140625 C 4.195312 -4.367188 3.882812 -4.484375 3.5 -4.484375 C 3.289062 -4.484375 3.09375 -4.414062 2.90625 -4.28125 C 2.726562 -4.15625 2.582031 -3.984375 2.46875 -3.765625 C 2.351562 -3.546875 2.296875 -3.300781 2.296875 -3.03125 L 2.296875 0 L 0.59375 0 L 0.59375 -6.0625 L 2.296875 -6.0625 L 2.296875 -5.640625 C 2.441406 -5.804688 2.660156 -5.9375 2.953125 -6.03125 C 3.242188 -6.132812 3.523438 -6.1875 3.796875 -6.1875 C 4.242188 -6.1875 4.648438 -6.097656 5.015625 -5.921875 C 5.390625 -5.742188 5.664062 -5.515625 5.84375 -5.234375 C 6.03125 -5.484375 6.253906 -5.675781 6.515625 -5.8125 C 6.773438 -5.957031 7.035156 -6.054688 7.296875 -6.109375 C 7.554688 -6.160156 7.789062 -6.1875 8 -6.1875 C 8.625 -6.1875 9.140625 -6.046875 9.546875 -5.765625 C 9.960938 -5.484375 10.269531 -5.101562 10.46875 -4.625 C 10.664062 -4.144531 10.765625 -3.613281 10.765625 -3.03125 L 10.765625 0 L 9.078125 0 L 9.078125 -3.03125 C 9.078125 -3.488281 8.953125 -3.84375 8.703125 -4.09375 C 8.460938 -4.351562 8.171875 -4.484375 7.828125 -4.484375 C 7.453125 -4.484375 7.140625 -4.335938 6.890625 -4.046875 C 6.640625 -3.765625 6.515625 -3.425781 6.515625 -3.03125 Z M 6.515625 -3.03125 "/></g></g></g><g fill="#000000" fill-opacity="1"><g transform="translate(155.927131, 283.849933)"><g><path d="M 4.796875 -6.0625 L 6.5 -6.0625 L 6.5 0 L 4.796875 0 L 4.796875 -0.4375 C 4.671875 -0.257812 4.460938 -0.117188 4.171875 -0.015625 C 3.890625 0.078125 3.609375 0.125 3.328125 0.125 C 2.773438 0.125 2.273438 -0.015625 1.828125 -0.296875 C 1.378906 -0.585938 1.019531 -0.96875 0.75 -1.4375 C 0.476562 -1.914062 0.34375 -2.445312 0.34375 -3.03125 C 0.34375 -3.613281 0.476562 -4.144531 0.75 -4.625 C 1.019531 -5.101562 1.378906 -5.484375 1.828125 -5.765625 C 2.285156 -6.046875 2.785156 -6.1875 3.328125 -6.1875 C 3.597656 -6.1875 3.878906 -6.128906 4.171875 -6.015625 C 4.460938 -5.910156 4.671875 -5.785156 4.796875 -5.640625 Z M 3.484375 -1.5625 C 3.890625 -1.5625 4.222656 -1.695312 4.484375 -1.96875 C 4.742188 -2.238281 4.875 -2.59375 4.875 -3.03125 C 4.875 -3.445312 4.742188 -3.789062 4.484375 -4.0625 C 4.222656 -4.34375 3.890625 -4.484375 3.484375 -4.484375 C 3.097656 -4.484375 2.765625 -4.34375 2.484375 -4.0625 C 2.210938 -3.789062 2.078125 -3.445312 2.078125 -3.03125 C 2.078125 -2.59375 2.210938 -2.238281 2.484375 -1.96875 C 2.765625 -1.695312 3.097656 -1.5625 3.484375 -1.5625 Z M 3.484375 -1.5625 "/></g></g></g><g fill="#000000" fill-opacity="1"><g transform="translate(163.031142, 283.849933)"><g><path d="M 2.296875 -6.0625 L 2.296875 0 L 0.59375 0 L 0.59375 -6.0625 Z M 1.46875 -9.359375 L 3.453125 -6.890625 L 1.84375 -6.890625 L 1.46875 -7.40625 L 1.09375 -6.890625 L -0.5 -6.890625 Z M 1.46875 -9.359375 "/></g></g></g><g fill="#000000" fill-opacity="1"><g transform="translate(165.935149, 283.849933)"><g><path d="M 4.15625 -4.484375 L 2.71875 -4.484375 L 2.71875 -2.5625 C 2.71875 -2.21875 2.851562 -1.960938 3.125 -1.796875 C 3.394531 -1.640625 3.722656 -1.5625 4.109375 -1.5625 L 4.109375 0.125 C 3.515625 0.125 2.984375 0.015625 2.515625 -0.203125 C 2.046875 -0.421875 1.675781 -0.726562 1.40625 -1.125 C 1.144531 -1.53125 1.015625 -1.992188 1.015625 -2.515625 L 1.015625 -4.484375 L 0.09375 -4.484375 L 0.09375 -6.0625 L 1.015625 -6.0625 L 1.015625 -6.859375 L 2.71875 -8.09375 L 2.71875 -6.0625 L 4.15625 -6.0625 Z M 4.15625 -4.484375 "/></g></g></g><g fill="#000000" fill-opacity="1"><g transform="translate(170.267161, 283.849933)"><g><path d="M 4.0625 -6.171875 L 4.0625 -4.40625 C 3.90625 -4.457031 3.726562 -4.484375 3.53125 -4.484375 C 3.195312 -4.484375 2.90625 -4.359375 2.65625 -4.109375 C 2.414062 -3.867188 2.296875 -3.507812 2.296875 -3.03125 L 2.296875 0 L 0.59375 0 L 0.59375 -6.0625 L 2.296875 -6.0625 L 2.296875 -5.640625 C 2.484375 -5.835938 2.695312 -5.976562 2.9375 -6.0625 C 3.175781 -6.144531 3.410156 -6.1875 3.640625 -6.1875 C 3.710938 -6.1875 3.78125 -6.1875 3.84375 -6.1875 C 3.914062 -6.1875 3.988281 -6.179688 4.0625 -6.171875 Z M 4.0625 -6.171875 "/></g></g></g><g fill="#000000" fill-opacity="1"><g transform="translate(174.491175, 283.849933)"><g><path d="M 1.4375 -7.125 C 1.175781 -7.125 0.945312 -7.21875 0.75 -7.40625 C 0.550781 -7.601562 0.453125 -7.832031 0.453125 -8.09375 C 0.453125 -8.332031 0.550781 -8.546875 0.75 -8.734375 C 0.945312 -8.929688 1.175781 -9.03125 1.4375 -9.03125 C 1.726562 -9.03125 1.96875 -8.9375 2.15625 -8.75 C 2.351562 -8.5625 2.453125 -8.34375 2.453125 -8.09375 C 2.453125 -7.832031 2.351562 -7.601562 2.15625 -7.40625 C 1.96875 -7.21875 1.726562 -7.125 1.4375 -7.125 Z M 2.296875 -6.0625 L 2.296875 0 L 0.59375 0 L 0.59375 -6.0625 Z M 2.296875 -6.0625 "/></g></g></g><g fill="#000000" fill-opacity="1"><g transform="translate(177.395181, 283.849933)"><g><path d="M 2.15625 -2.4375 C 1.601562 -2.519531 1.148438 -2.734375 0.796875 -3.078125 C 0.453125 -3.421875 0.28125 -3.847656 0.28125 -4.359375 C 0.28125 -4.710938 0.382812 -5.023438 0.59375 -5.296875 C 0.800781 -5.578125 1.054688 -5.796875 1.359375 -5.953125 C 1.671875 -6.109375 1.972656 -6.1875 2.265625 -6.1875 C 3.035156 -6.1875 3.640625 -5.875 4.078125 -5.25 L 2.859375 -4.359375 C 2.773438 -4.429688 2.6875 -4.488281 2.59375 -4.53125 C 2.507812 -4.582031 2.410156 -4.609375 2.296875 -4.609375 C 2.191406 -4.609375 2.101562 -4.578125 2.03125 -4.515625 C 1.96875 -4.453125 1.9375 -4.378906 1.9375 -4.296875 C 1.9375 -4.191406 1.984375 -4.109375 2.078125 -4.046875 C 2.171875 -3.984375 2.34375 -3.9375 2.59375 -3.90625 C 3.15625 -3.832031 3.625 -3.640625 4 -3.328125 C 4.375 -3.023438 4.5625 -2.5625 4.5625 -1.9375 C 4.5625 -1.53125 4.457031 -1.171875 4.25 -0.859375 C 4.039062 -0.546875 3.757812 -0.300781 3.40625 -0.125 C 3.0625 0.0390625 2.671875 0.125 2.234375 0.125 C 1.785156 0.125 1.390625 0.046875 1.046875 -0.109375 C 0.710938 -0.265625 0.410156 -0.488281 0.140625 -0.78125 L 1.578125 -1.828125 C 1.753906 -1.648438 1.976562 -1.5625 2.25 -1.5625 C 2.40625 -1.5625 2.519531 -1.597656 2.59375 -1.671875 C 2.664062 -1.753906 2.703125 -1.851562 2.703125 -1.96875 C 2.703125 -2.082031 2.660156 -2.179688 2.578125 -2.265625 C 2.492188 -2.347656 2.351562 -2.40625 2.15625 -2.4375 Z M 2.15625 -2.4375 "/></g></g></g><g fill="#000000" fill-opacity="1"><g transform="translate(182.219186, 283.849933)"><g><path d="M 4.9375 -2.171875 L 6.296875 -1.125 C 6.046875 -0.738281 5.675781 -0.429688 5.1875 -0.203125 C 4.695312 0.015625 4.179688 0.125 3.640625 0.125 C 3.179688 0.125 2.753906 0.046875 2.359375 -0.109375 C 1.960938 -0.273438 1.613281 -0.503906 1.3125 -0.796875 C 1.007812 -1.085938 0.769531 -1.421875 0.59375 -1.796875 C 0.425781 -2.179688 0.34375 -2.59375 0.34375 -3.03125 C 0.34375 -3.613281 0.484375 -4.144531 0.765625 -4.625 C 1.054688 -5.101562 1.4375 -5.484375 1.90625 -5.765625 C 2.382812 -6.046875 2.910156 -6.1875 3.484375 -6.1875 C 3.992188 -6.1875 4.453125 -6.085938 4.859375 -5.890625 C 5.265625 -5.691406 5.613281 -5.429688 5.90625 -5.109375 C 6.195312 -4.785156 6.398438 -4.4375 6.515625 -4.0625 L 3.125 -1.625 C 3.207031 -1.59375 3.289062 -1.570312 3.375 -1.5625 C 3.457031 -1.5625 3.546875 -1.5625 3.640625 -1.5625 C 3.890625 -1.5625 4.132812 -1.609375 4.375 -1.703125 C 4.613281 -1.796875 4.800781 -1.953125 4.9375 -2.171875 Z M 2.078125 -3.03125 C 2.078125 -2.863281 2.09375 -2.726562 2.125 -2.625 L 4.328125 -4.203125 C 4.210938 -4.285156 4.082031 -4.351562 3.9375 -4.40625 C 3.800781 -4.457031 3.648438 -4.484375 3.484375 -4.484375 C 3.097656 -4.484375 2.765625 -4.34375 2.484375 -4.0625 C 2.210938 -3.789062 2.078125 -3.445312 2.078125 -3.03125 Z M 2.078125 -3.03125 "/></g></g></g><g fill="#000000" fill-opacity="1"><g transform="translate(189.083203, 283.849933)"><g/></g></g><g fill="#000000" fill-opacity="1"><g transform="translate(194.135209, 283.849933)"><g><path d="M 4.796875 -8.9375 L 6.5 -8.9375 L 6.5 0 L 4.796875 0 L 4.796875 -0.4375 C 4.671875 -0.257812 4.460938 -0.117188 4.171875 -0.015625 C 3.890625 0.078125 3.609375 0.125 3.328125 0.125 C 2.773438 0.125 2.273438 -0.015625 1.828125 -0.296875 C 1.378906 -0.585938 1.019531 -0.96875 0.75 -1.4375 C 0.476562 -1.914062 0.34375 -2.445312 0.34375 -3.03125 C 0.34375 -3.613281 0.476562 -4.144531 0.75 -4.625 C 1.019531 -5.101562 1.378906 -5.484375 1.828125 -5.765625 C 2.285156 -6.046875 2.785156 -6.1875 3.328125 -6.1875 C 3.597656 -6.1875 3.878906 -6.128906 4.171875 -6.015625 C 4.460938 -5.910156 4.671875 -5.785156 4.796875 -5.640625 Z M 3.484375 -1.5625 C 3.890625 -1.5625 4.222656 -1.695312 4.484375 -1.96875 C 4.742188 -2.238281 4.875 -2.59375 4.875 -3.03125 C 4.875 -3.445312 4.742188 -3.789062 4.484375 -4.0625 C 4.222656 -4.34375 3.890625 -4.484375 3.484375 -4.484375 C 3.097656 -4.484375 2.765625 -4.34375 2.484375 -4.0625 C 2.210938 -3.789062 2.078125 -3.445312 2.078125 -3.03125 C 2.078125 -2.59375 2.210938 -2.238281 2.484375 -1.96875 C 2.765625 -1.695312 3.097656 -1.5625 3.484375 -1.5625 Z M 3.484375 -1.5625 "/></g></g></g><g fill="#000000" fill-opacity="1"><g transform="translate(201.23922, 283.849933)"><g><path d="M 0.515625 -2.90625 L 0.515625 -6.0625 L 2.21875 -6.0625 L 2.21875 -3.046875 C 2.21875 -2.609375 2.335938 -2.25 2.578125 -1.96875 C 2.828125 -1.695312 3.125 -1.5625 3.46875 -1.5625 C 3.726562 -1.5625 3.96875 -1.609375 4.1875 -1.703125 C 4.40625 -1.796875 4.582031 -1.953125 4.71875 -2.171875 C 4.863281 -2.390625 4.9375 -2.679688 4.9375 -3.046875 L 4.9375 -6.0625 L 6.625 -6.0625 L 6.625 0 L 4.9375 0 L 4.9375 -0.4375 C 4.757812 -0.238281 4.503906 -0.09375 4.171875 0 C 3.835938 0.0820312 3.523438 0.125 3.234375 0.125 C 2.710938 0.125 2.242188 -0.0078125 1.828125 -0.28125 C 1.421875 -0.5625 1.097656 -0.929688 0.859375 -1.390625 C 0.628906 -1.847656 0.515625 -2.351562 0.515625 -2.90625 Z M 0.515625 -2.90625 "/></g></g></g><g fill="#000000" fill-opacity="1"><g transform="translate(208.463233, 283.849933)"><g/></g></g><g fill="#000000" fill-opacity="1"><g transform="translate(213.515239, 283.849933)"><g><path d="M 4.796875 -8.9375 L 6.5 -8.9375 L 6.5 0 L 4.796875 0 L 4.796875 -0.4375 C 4.671875 -0.257812 4.460938 -0.117188 4.171875 -0.015625 C 3.890625 0.078125 3.609375 0.125 3.328125 0.125 C 2.773438 0.125 2.273438 -0.015625 1.828125 -0.296875 C 1.378906 -0.585938 1.019531 -0.96875 0.75 -1.4375 C 0.476562 -1.914062 0.34375 -2.445312 0.34375 -3.03125 C 0.34375 -3.613281 0.476562 -4.144531 0.75 -4.625 C 1.019531 -5.101562 1.378906 -5.484375 1.828125 -5.765625 C 2.285156 -6.046875 2.785156 -6.1875 3.328125 -6.1875 C 3.597656 -6.1875 3.878906 -6.128906 4.171875 -6.015625 C 4.460938 -5.910156 4.671875 -5.785156 4.796875 -5.640625 Z M 3.484375 -1.5625 C 3.890625 -1.5625 4.222656 -1.695312 4.484375 -1.96875 C 4.742188 -2.238281 4.875 -2.59375 4.875 -3.03125 C 4.875 -3.445312 4.742188 -3.789062 4.484375 -4.0625 C 4.222656 -4.34375 3.890625 -4.484375 3.484375 -4.484375 C 3.097656 -4.484375 2.765625 -4.34375 2.484375 -4.0625 C 2.210938 -3.789062 2.078125 -3.445312 2.078125 -3.03125 C 2.078125 -2.59375 2.210938 -2.238281 2.484375 -1.96875 C 2.765625 -1.695312 3.097656 -1.5625 3.484375 -1.5625 Z M 3.484375 -1.5625 "/></g></g></g><g fill="#000000" fill-opacity="1"><g transform="translate(220.61925, 283.849933)"><g><path d="M 4.9375 -2.171875 L 6.296875 -1.125 C 6.046875 -0.738281 5.675781 -0.429688 5.1875 -0.203125 C 4.695312 0.015625 4.179688 0.125 3.640625 0.125 C 3.179688 0.125 2.753906 0.046875 2.359375 -0.109375 C 1.960938 -0.273438 1.613281 -0.503906 1.3125 -0.796875 C 1.007812 -1.085938 0.769531 -1.421875 0.59375 -1.796875 C 0.425781 -2.179688 0.34375 -2.59375 0.34375 -3.03125 C 0.34375 -3.613281 0.484375 -4.144531 0.765625 -4.625 C 1.054688 -5.101562 1.4375 -5.484375 1.90625 -5.765625 C 2.382812 -6.046875 2.910156 -6.1875 3.484375 -6.1875 C 3.992188 -6.1875 4.453125 -6.085938 4.859375 -5.890625 C 5.265625 -5.691406 5.613281 -5.429688 5.90625 -5.109375 C 6.195312 -4.785156 6.398438 -4.4375 6.515625 -4.0625 L 3.125 -1.625 C 3.207031 -1.59375 3.289062 -1.570312 3.375 -1.5625 C 3.457031 -1.5625 3.546875 -1.5625 3.640625 -1.5625 C 3.890625 -1.5625 4.132812 -1.609375 4.375 -1.703125 C 4.613281 -1.796875 4.800781 -1.953125 4.9375 -2.171875 Z M 3.609375 -9.125 L 4.734375 -8.3125 L 3.796875 -6.890625 L 2.1875 -6.890625 Z M 2.078125 -3.03125 C 2.078125 -2.96875 2.078125 -2.914062 2.078125 -2.875 C 2.085938 -2.832031 2.09375 -2.789062 2.09375 -2.75 L 4.234375 -4.265625 C 4.128906 -4.335938 4.015625 -4.390625 3.890625 -4.421875 C 3.765625 -4.460938 3.628906 -4.484375 3.484375 -4.484375 C 3.097656 -4.484375 2.765625 -4.34375 2.484375 -4.0625 C 2.210938 -3.789062 2.078125 -3.445312 2.078125 -3.03125 Z M 2.078125 -3.03125 "/></g></g></g><g fill="#000000" fill-opacity="1"><g transform="translate(227.483267, 283.849933)"><g><path d="M 4.15625 -4.484375 L 2.71875 -4.484375 L 2.71875 -2.5625 C 2.71875 -2.21875 2.851562 -1.960938 3.125 -1.796875 C 3.394531 -1.640625 3.722656 -1.5625 4.109375 -1.5625 L 4.109375 0.125 C 3.515625 0.125 2.984375 0.015625 2.515625 -0.203125 C 2.046875 -0.421875 1.675781 -0.726562 1.40625 -1.125 C 1.144531 -1.53125 1.015625 -1.992188 1.015625 -2.515625 L 1.015625 -4.484375 L 0.09375 -4.484375 L 0.09375 -6.0625 L 1.015625 -6.0625 L 1.015625 -6.859375 L 2.71875 -8.09375 L 2.71875 -6.0625 L 4.15625 -6.0625 Z M 4.15625 -4.484375 "/></g></g></g><g fill="#000000" fill-opacity="1"><g transform="translate(231.815279, 283.849933)"><g><path d="M 4.796875 -6.0625 L 6.5 -6.0625 L 6.5 0 L 4.796875 0 L 4.796875 -0.4375 C 4.671875 -0.257812 4.460938 -0.117188 4.171875 -0.015625 C 3.890625 0.078125 3.609375 0.125 3.328125 0.125 C 2.773438 0.125 2.273438 -0.015625 1.828125 -0.296875 C 1.378906 -0.585938 1.019531 -0.96875 0.75 -1.4375 C 0.476562 -1.914062 0.34375 -2.445312 0.34375 -3.03125 C 0.34375 -3.613281 0.476562 -4.144531 0.75 -4.625 C 1.019531 -5.101562 1.378906 -5.484375 1.828125 -5.765625 C 2.285156 -6.046875 2.785156 -6.1875 3.328125 -6.1875 C 3.597656 -6.1875 3.878906 -6.128906 4.171875 -6.015625 C 4.460938 -5.910156 4.671875 -5.785156 4.796875 -5.640625 Z M 3.484375 -1.5625 C 3.890625 -1.5625 4.222656 -1.695312 4.484375 -1.96875 C 4.742188 -2.238281 4.875 -2.59375 4.875 -3.03125 C 4.875 -3.445312 4.742188 -3.789062 4.484375 -4.0625 C 4.222656 -4.34375 3.890625 -4.484375 3.484375 -4.484375 C 3.097656 -4.484375 2.765625 -4.34375 2.484375 -4.0625 C 2.210938 -3.789062 2.078125 -3.445312 2.078125 -3.03125 C 2.078125 -2.59375 2.210938 -2.238281 2.484375 -1.96875 C 2.765625 -1.695312 3.097656 -1.5625 3.484375 -1.5625 Z M 3.484375 -1.5625 "/></g></g></g><g fill="#000000" fill-opacity="1"><g transform="translate(238.91929, 283.849933)"><g><path d="M 1.4375 -7.125 C 1.175781 -7.125 0.945312 -7.21875 0.75 -7.40625 C 0.550781 -7.601562 0.453125 -7.832031 0.453125 -8.09375 C 0.453125 -8.332031 0.550781 -8.546875 0.75 -8.734375 C 0.945312 -8.929688 1.175781 -9.03125 1.4375 -9.03125 C 1.726562 -9.03125 1.96875 -8.9375 2.15625 -8.75 C 2.351562 -8.5625 2.453125 -8.34375 2.453125 -8.09375 C 2.453125 -7.832031 2.351562 -7.601562 2.15625 -7.40625 C 1.96875 -7.21875 1.726562 -7.125 1.4375 -7.125 Z M 2.296875 -6.0625 L 2.296875 0 L 0.59375 0 L 0.59375 -6.0625 Z M 2.296875 -6.0625 "/></g></g></g><g fill="#000000" fill-opacity="1"><g transform="translate(241.823297, 283.849933)"><g><path d="M 0.59375 -8.9375 L 2.296875 -8.9375 L 2.296875 0 L 0.59375 0 Z M 0.59375 -8.9375 "/></g></g></g><g clip-path="url(#e536dfc085)"><path fill="#9823c6" d="M 155.851562 118.46875 C 157.429688 116.855469 158.585938 115.339844 159.328125 113.921875 L 177.921875 79.308594 C 178.695312 77.890625 178.851562 76.957031 178.386719 76.515625 C 177.953125 76.046875 177.027344 76.199219 175.605469 76.988281 L 141.796875 96.027344 C 140.378906 96.847656 138.90625 98.03125 137.394531 99.574219 C 135.816406 101.183594 134.660156 102.699219 133.917969 104.121094 L 115.273438 138.636719 C 114.472656 140.058594 114.300781 141.003906 114.761719 141.480469 C 115.195312 141.921875 116.121094 141.75 117.546875 140.960938 L 151.441406 122.019531 C 152.863281 121.195312 154.332031 120.011719 155.84375 118.46875 Z M 155.851562 118.46875 " fill-opacity="1" fill-rule="evenodd"/></g><path fill="#ffc34e" d="M 234.324219 131.433594 C 234.078125 129.601562 233.382812 128.101562 232.238281 126.933594 L 198.898438 92.914062 C 197.753906 91.746094 196.515625 91.257812 195.191406 91.445312 C 193.832031 91.636719 192.765625 92.453125 191.988281 93.90625 L 173.347656 128.449219 C 172.578125 129.867188 172.328125 131.511719 172.605469 133.371094 C 172.855469 135.203125 173.535156 136.703125 174.644531 137.871094 L 207.984375 171.863281 C 209.097656 173.03125 210.332031 173.503906 211.691406 173.28125 C 213.050781 173.089844 214.121094 172.289062 214.894531 170.867188 L 233.535156 136.351562 C 234.308594 134.898438 234.570312 133.257812 234.324219 131.425781 Z M 234.324219 131.433594 " fill-opacity="1" fill-rule="evenodd"/><g clip-path="url(#a0ca15b47f)"><path fill="#ff3e3c" d="M 195.261719 189.863281 C 195.476562 188.476562 195.015625 187.214844 193.871094 186.078125 L 160.554688 152.035156 C 159.414062 150.894531 157.945312 150.203125 156.152344 149.953125 C 154.328125 149.667969 152.722656 149.917969 151.332031 150.707031 L 117.480469 169.742188 C 116.089844 170.53125 115.304688 171.617188 115.117188 173.007812 C 114.902344 174.367188 115.363281 175.625 116.507812 176.796875 L 149.847656 210.835938 C 150.992188 212.003906 152.457031 212.714844 154.25 212.96875 C 156.042969 213.222656 157.652344 212.953125 159.074219 212.164062 L 192.878906 193.132812 C 194.269531 192.339844 195.054688 191.253906 195.242188 189.863281 Z M 195.261719 189.863281 " fill-opacity="1" fill-rule="evenodd"/></g><g clip-path="url(#1293366ad5)"><path fill="#26c4ff" d="M 247.644531 116.289062 C 247.828125 114.902344 247.367188 113.621094 246.253906 112.457031 L 212.914062 78.460938 C 211.800781 77.292969 210.347656 76.582031 208.554688 76.332031 C 206.730469 76.078125 205.125 76.34375 203.734375 77.132812 L 169.882812 96.121094 C 168.460938 96.910156 167.65625 97.996094 167.472656 99.386719 C 167.285156 100.777344 167.765625 102.054688 168.910156 103.222656 L 202.25 137.261719 C 203.394531 138.429688 204.859375 139.140625 206.652344 139.394531 C 208.445312 139.648438 210.039062 139.378906 211.429688 138.589844 L 245.230469 119.558594 C 246.652344 118.765625 247.457031 117.679688 247.644531 116.289062 Z M 247.644531 116.289062 " fill-opacity="1" fill-rule="evenodd"/></g><path fill="#fe0fa6" d="M 248.015625 147.675781 C 247.582031 147.207031 246.65625 147.359375 245.230469 148.148438 L 211.382812 167.089844 C 209.960938 167.910156 208.476562 169.09375 206.933594 170.636719 C 205.386719 172.246094 204.226562 173.761719 203.453125 175.183594 L 184.90625 209.792969 C 184.136719 211.214844 183.964844 212.160156 184.394531 212.636719 C 184.859375 213.109375 185.785156 212.9375 187.179688 212.117188 L 220.980469 193.082031 C 222.371094 192.292969 223.855469 191.109375 225.433594 189.535156 C 226.925781 187.957031 228.105469 186.441406 228.910156 184.988281 L 247.550781 150.472656 C 248.324219 149.054688 248.480469 148.121094 248.015625 147.679688 Z M 248.015625 147.675781 " fill-opacity="1" fill-rule="evenodd"/><path fill="#98d843" d="M 189.613281 160.851562 C 190.386719 159.429688 190.648438 157.789062 190.402344 155.925781 C 190.15625 154.097656 189.460938 152.597656 188.316406 151.429688 L 154.976562 117.386719 C 153.832031 116.21875 152.59375 115.746094 151.269531 115.96875 C 149.910156 116.160156 148.84375 116.960938 148.066406 118.382812 L 129.429688 152.945312 C 128.65625 154.398438 128.410156 156.039062 128.6875 157.867188 C 128.933594 159.699219 129.613281 161.199219 130.726562 162.367188 L 164.066406 196.359375 C 165.179688 197.523438 166.410156 198.015625 167.773438 197.828125 C 169.132812 197.636719 170.199219 196.816406 170.972656 195.363281 Z M 189.613281 160.851562 " fill-opacity="1" fill-rule="evenodd"/><g fill="#000000" fill-opacity="1"><g transform="translate(95.188263, 261.028137)"><g><path d="M 27.375 -25.3125 C 27.78125 -22.894531 27.554688 -20.644531 26.703125 -18.5625 C 25.859375 -16.476562 24.503906 -14.71875 22.640625 -13.28125 C 20.773438 -11.851562 18.53125 -10.925781 15.90625 -10.5 C 15.332031 -10.375 14.691406 -10.316406 13.984375 -10.328125 C 13.285156 -10.347656 12.585938 -10.375 11.890625 -10.40625 C 11.535156 -10.4375 11.175781 -10.457031 10.8125 -10.46875 C 10.457031 -10.488281 10.101562 -10.5 9.75 -10.5 L 9.265625 -10.5 L 9.3125 -9.359375 C 9.34375 -8.828125 9.367188 -8.195312 9.390625 -7.46875 C 9.421875 -6.75 9.4375 -6.15625 9.4375 -5.6875 L 9.4375 -5.296875 C 9.414062 -4.796875 9.378906 -4.296875 9.328125 -3.796875 C 9.285156 -3.304688 9.175781 -2.859375 9 -2.453125 C 8.65625 -1.578125 8.210938 -0.96875 7.671875 -0.625 C 7.128906 -0.289062 6.640625 -0.0976562 6.203125 -0.046875 C 5.617188 0.046875 5.078125 0.00390625 4.578125 -0.171875 C 4.085938 -0.347656 3.726562 -0.566406 3.5 -0.828125 L 3.359375 -0.921875 C 2.898438 -1.210938 2.625 -1.625 2.53125 -2.15625 C 2.445312 -2.695312 2.421875 -3.316406 2.453125 -4.015625 C 2.472656 -4.453125 2.5 -4.890625 2.53125 -5.328125 C 2.5625 -5.765625 2.59375 -6.21875 2.625 -6.6875 C 2.675781 -7.53125 2.722656 -8.394531 2.765625 -9.28125 C 2.816406 -10.175781 2.84375 -11.078125 2.84375 -11.984375 C 2.84375 -13.523438 2.773438 -15.082031 2.640625 -16.65625 C 2.515625 -18.226562 2.378906 -19.785156 2.234375 -21.328125 C 2.085938 -22.765625 1.953125 -24.207031 1.828125 -25.65625 C 1.710938 -27.113281 1.644531 -28.570312 1.625 -30.03125 C 1.625 -30.414062 1.628906 -30.789062 1.640625 -31.15625 C 1.648438 -31.519531 1.6875 -31.875 1.75 -32.21875 C 1.976562 -33.382812 2.585938 -34.128906 3.578125 -34.453125 C 3.847656 -34.503906 4.113281 -34.53125 4.375 -34.53125 C 5.101562 -34.53125 5.773438 -34.238281 6.390625 -33.65625 C 6.472656 -33.601562 6.570312 -33.472656 6.6875 -33.265625 C 6.769531 -33.148438 6.84375 -33.050781 6.90625 -32.96875 L 7.21875 -32.578125 L 7.5625 -32.828125 C 9.601562 -34.253906 11.9375 -35.085938 14.5625 -35.328125 C 16.832031 -35.503906 18.863281 -35.210938 20.65625 -34.453125 C 22.445312 -33.691406 23.925781 -32.535156 25.09375 -30.984375 C 26.257812 -29.441406 27.019531 -27.550781 27.375 -25.3125 Z M 17.703125 -19.890625 C 19.515625 -21.609375 20.039062 -23.519531 19.28125 -25.625 C 18.925781 -26.550781 18.359375 -27.191406 17.578125 -27.546875 C 16.929688 -27.804688 16.171875 -27.878906 15.296875 -27.765625 C 14.421875 -27.648438 13.597656 -27.378906 12.828125 -26.953125 C 12.054688 -26.523438 11.484375 -25.992188 11.109375 -25.359375 C 9.828125 -23.285156 9.1875 -20.789062 9.1875 -17.875 L 9.1875 -17.4375 L 9.625 -17.40625 C 9.96875 -17.40625 10.285156 -17.40625 10.578125 -17.40625 C 13.609375 -17.40625 15.984375 -18.234375 17.703125 -19.890625 Z M 17.703125 -19.890625 "/></g></g></g><g fill="#000000" fill-opacity="1"><g transform="translate(124.387129, 261.028137)"><g><path d="M 19.625 -17.359375 C 19.738281 -16.953125 19.757812 -16.476562 19.6875 -15.9375 C 19.625 -15.394531 19.457031 -14.976562 19.1875 -14.6875 C 18.957031 -14.394531 18.585938 -14.195312 18.078125 -14.09375 C 17.566406 -14 17.09375 -13.960938 16.65625 -13.984375 C 16.21875 -14.015625 15.78125 -14.140625 15.34375 -14.359375 C 14.90625 -14.578125 14.484375 -14.789062 14.078125 -15 C 13.492188 -15.289062 12.984375 -15.367188 12.546875 -15.234375 C 12.109375 -15.109375 11.800781 -14.765625 11.625 -14.203125 C 10.894531 -12.191406 10.300781 -10.125 9.84375 -8 C 9.71875 -7.53125 9.691406 -7.039062 9.765625 -6.53125 C 9.835938 -6.019531 9.847656 -5.519531 9.796875 -5.03125 C 9.703125 -3.945312 9.296875 -3.0625 8.578125 -2.375 C 7.867188 -1.695312 7.019531 -1.328125 6.03125 -1.265625 C 5.007812 -1.210938 4.117188 -1.484375 3.359375 -2.078125 C 2.609375 -2.671875 2.101562 -3.492188 1.84375 -4.546875 C 1.78125 -4.804688 1.726562 -5.066406 1.6875 -5.328125 C 1.644531 -5.597656 1.625 -5.878906 1.625 -6.171875 C 1.644531 -8.765625 1.660156 -11.363281 1.671875 -13.96875 C 1.691406 -16.570312 1.71875 -19.171875 1.75 -21.765625 C 1.75 -22.035156 1.765625 -22.320312 1.796875 -22.625 C 1.828125 -22.925781 1.925781 -23.164062 2.09375 -23.34375 C 2.382812 -23.695312 2.710938 -24.066406 3.078125 -24.453125 C 3.441406 -24.847656 3.816406 -25.0625 4.203125 -25.09375 C 4.578125 -25.125 4.988281 -25 5.4375 -24.71875 C 5.894531 -24.445312 6.28125 -24.132812 6.59375 -23.78125 C 6.863281 -23.488281 7.0625 -23.113281 7.1875 -22.65625 C 7.320312 -22.207031 7.476562 -21.753906 7.65625 -21.296875 C 10.445312 -22.804688 13.210938 -22.863281 15.953125 -21.46875 C 16.859375 -21.03125 17.628906 -20.472656 18.265625 -19.796875 C 18.910156 -19.128906 19.363281 -18.316406 19.625 -17.359375 Z M 19.625 -17.359375 "/></g></g></g><g fill="#000000" fill-opacity="1"><g transform="translate(145.76175, 261.028137)"><g><path d="M 8.125 -18.671875 C 8.125 -18.171875 8.125 -17.445312 8.125 -16.5 C 8.125 -15.550781 8.117188 -14.535156 8.109375 -13.453125 C 8.097656 -12.378906 8.082031 -11.40625 8.0625 -10.53125 C 8.050781 -9.65625 8.046875 -9.046875 8.046875 -8.703125 C 8.015625 -8.265625 7.976562 -7.828125 7.9375 -7.390625 C 7.894531 -6.953125 7.828125 -6.515625 7.734375 -6.078125 C 7.535156 -4.910156 7.128906 -4.015625 6.515625 -3.390625 C 5.898438 -2.765625 5.203125 -2.476562 4.421875 -2.53125 C 3.628906 -2.59375 2.941406 -2.957031 2.359375 -3.625 C 1.773438 -4.300781 1.539062 -5.207031 1.65625 -6.34375 C 1.832031 -8.5 2.09375 -10.644531 2.4375 -12.78125 C 2.789062 -14.925781 3.160156 -17.078125 3.546875 -19.234375 C 3.660156 -19.816406 3.941406 -20.28125 4.390625 -20.625 C 4.847656 -20.976562 5.410156 -21.113281 6.078125 -21.03125 C 6.742188 -20.96875 7.242188 -20.710938 7.578125 -20.265625 C 7.921875 -19.816406 8.101562 -19.285156 8.125 -18.671875 Z M 4.859375 -24.78125 C 4.148438 -24.8125 3.554688 -25.097656 3.078125 -25.640625 C 2.597656 -26.179688 2.359375 -26.832031 2.359375 -27.59375 C 2.359375 -28.34375 2.617188 -28.988281 3.140625 -29.53125 C 3.671875 -30.070312 4.316406 -30.34375 5.078125 -30.34375 C 5.804688 -30.34375 6.421875 -30.085938 6.921875 -29.578125 C 7.429688 -29.066406 7.675781 -28.429688 7.65625 -27.671875 C 7.65625 -26.890625 7.367188 -26.207031 6.796875 -25.625 C 6.234375 -25.039062 5.585938 -24.757812 4.859375 -24.78125 Z M 4.859375 -24.78125 "/></g></g></g><g fill="#000000" fill-opacity="1"><g transform="translate(155.552994, 261.028137)"><g><path d="M 20.15625 -18.9375 C 21.550781 -17.039062 22.398438 -15.023438 22.703125 -12.890625 C 23.015625 -10.765625 22.992188 -8.582031 22.640625 -6.34375 C 22.492188 -5.46875 22.128906 -4.78125 21.546875 -4.28125 C 20.960938 -3.789062 20.3125 -3.53125 19.59375 -3.5 C 18.832031 -3.46875 18.125 -3.671875 17.46875 -4.109375 C 16.8125 -4.546875 16.378906 -5.203125 16.171875 -6.078125 C 15.910156 -7.097656 15.722656 -8.128906 15.609375 -9.171875 C 15.492188 -10.222656 15.363281 -11.273438 15.21875 -12.328125 C 15.15625 -12.703125 15.085938 -13.09375 15.015625 -13.5 C 14.941406 -13.914062 14.863281 -14.398438 14.78125 -14.953125 C 14.457031 -14.691406 14.175781 -14.472656 13.9375 -14.296875 C 13.707031 -14.117188 13.519531 -13.929688 13.375 -13.734375 C 12.414062 -12.503906 11.550781 -11.222656 10.78125 -9.890625 C 10.007812 -8.566406 9.429688 -7.132812 9.046875 -5.59375 C 8.785156 -4.488281 8.28125 -3.648438 7.53125 -3.078125 C 6.789062 -2.515625 5.941406 -2.273438 4.984375 -2.359375 C 4.023438 -2.472656 3.21875 -2.882812 2.5625 -3.59375 C 1.90625 -4.3125 1.59375 -5.242188 1.625 -6.390625 C 1.675781 -8.398438 1.765625 -10.398438 1.890625 -12.390625 C 2.023438 -14.390625 2.179688 -16.394531 2.359375 -18.40625 C 2.421875 -19.132812 2.609375 -19.796875 2.921875 -20.390625 C 3.242188 -20.992188 3.859375 -21.304688 4.765625 -21.328125 C 5.578125 -21.359375 6.171875 -21.109375 6.546875 -20.578125 C 6.929688 -20.054688 7.226562 -19.445312 7.4375 -18.75 C 7.457031 -18.632812 7.5 -18.519531 7.5625 -18.40625 C 7.625 -18.289062 7.679688 -18.128906 7.734375 -17.921875 C 8.265625 -18.359375 8.753906 -18.785156 9.203125 -19.203125 C 9.648438 -19.628906 10.109375 -20.003906 10.578125 -20.328125 C 12.242188 -21.523438 13.945312 -22 15.6875 -21.75 C 17.4375 -21.5 18.925781 -20.5625 20.15625 -18.9375 Z M 20.15625 -18.9375 "/></g></g></g><g fill="#000000" fill-opacity="1"><g transform="translate(180.118513, 261.028137)"><g><path d="M 18.28125 -7.609375 C 18.507812 -6.929688 18.519531 -6.316406 18.3125 -5.765625 C 18.113281 -5.210938 17.765625 -4.703125 17.265625 -4.234375 C 16.535156 -3.566406 15.617188 -3.113281 14.515625 -2.875 C 13.410156 -2.644531 12.273438 -2.625 11.109375 -2.8125 C 9.941406 -3.007812 8.9375 -3.441406 8.09375 -4.109375 C 6.050781 -5.648438 4.898438 -7.707031 4.640625 -10.28125 C 4.515625 -11.144531 4.4375 -12.03125 4.40625 -12.9375 C 4.382812 -13.84375 4.359375 -14.734375 4.328125 -15.609375 C 4.328125 -16.046875 4.257812 -16.398438 4.125 -16.671875 C 4 -16.953125 3.734375 -17.164062 3.328125 -17.3125 C 2.742188 -17.539062 2.28125 -17.875 1.9375 -18.3125 C 1.601562 -18.75 1.523438 -19.257812 1.703125 -19.84375 C 1.847656 -20.28125 2.101562 -20.707031 2.46875 -21.125 C 2.832031 -21.550781 3.21875 -21.835938 3.625 -21.984375 C 4.15625 -22.222656 4.554688 -22.488281 4.828125 -22.78125 C 5.109375 -23.070312 5.265625 -23.507812 5.296875 -24.09375 C 5.316406 -24.613281 5.378906 -25.128906 5.484375 -25.640625 C 5.585938 -26.148438 5.679688 -26.664062 5.765625 -27.1875 C 6.085938 -28.96875 6.863281 -29.84375 8.09375 -29.8125 C 9.34375 -29.78125 10.097656 -28.878906 10.359375 -27.109375 C 10.453125 -26.492188 10.503906 -25.875 10.515625 -25.25 C 10.523438 -24.625 10.53125 -24.003906 10.53125 -23.390625 C 10.53125 -22.578125 10.941406 -22.15625 11.765625 -22.125 C 12.285156 -22.09375 12.804688 -22.054688 13.328125 -22.015625 C 13.859375 -21.972656 14.367188 -21.890625 14.859375 -21.765625 C 15.679688 -21.566406 16.3125 -21.15625 16.75 -20.53125 C 17.1875 -19.90625 17.375 -19.226562 17.3125 -18.5 C 17.25 -17.738281 16.941406 -17.085938 16.390625 -16.546875 C 15.835938 -16.003906 15.15625 -15.707031 14.34375 -15.65625 C 13.757812 -15.59375 13.148438 -15.566406 12.515625 -15.578125 C 11.890625 -15.597656 11.171875 -15.609375 10.359375 -15.609375 C 10.472656 -14.734375 10.570312 -13.847656 10.65625 -12.953125 C 10.75 -12.066406 10.867188 -11.1875 11.015625 -10.3125 C 11.128906 -9.789062 11.382812 -9.410156 11.78125 -9.171875 C 12.175781 -8.941406 12.632812 -8.859375 13.15625 -8.921875 C 13.507812 -8.972656 13.851562 -9.035156 14.1875 -9.109375 C 14.519531 -9.179688 14.863281 -9.234375 15.21875 -9.265625 C 15.882812 -9.328125 16.488281 -9.234375 17.03125 -8.984375 C 17.570312 -8.734375 17.988281 -8.273438 18.28125 -7.609375 Z M 18.28125 -7.609375 "/></g></g></g><g fill="#000000" fill-opacity="1"><g transform="translate(200.225517, 261.028137)"><g/></g></g><g fill="#000000" fill-opacity="1"><g transform="translate(212.770541, 261.028137)"><g><path d="M 13.765625 -9.140625 C 13.796875 -9.078125 13.828125 -9.007812 13.859375 -8.9375 C 13.890625 -8.863281 13.929688 -8.800781 13.984375 -8.75 C 14.398438 -8.75 14.816406 -8.757812 15.234375 -8.78125 C 15.660156 -8.8125 16.078125 -8.828125 16.484375 -8.828125 C 17.097656 -8.859375 17.707031 -8.894531 18.3125 -8.9375 C 18.925781 -8.976562 19.523438 -8.957031 20.109375 -8.875 C 21.160156 -8.726562 22.015625 -8.257812 22.671875 -7.46875 C 23.328125 -6.6875 23.671875 -5.785156 23.703125 -4.765625 C 23.703125 -3.710938 23.410156 -2.75 22.828125 -1.875 C 22.242188 -1 21.425781 -0.519531 20.375 -0.4375 C 17.8125 -0.226562 15.238281 -0.0820312 12.65625 0 C 10.070312 0.0820312 7.515625 -0.238281 4.984375 -0.96875 C 3.960938 -1.28125 3.160156 -1.785156 2.578125 -2.484375 C 1.992188 -3.191406 1.671875 -4.003906 1.609375 -4.921875 C 1.554688 -5.835938 1.789062 -6.757812 2.3125 -7.6875 C 2.8125 -8.59375 3.378906 -9.460938 4.015625 -10.296875 C 4.660156 -11.128906 5.316406 -11.9375 5.984375 -12.71875 C 7.242188 -14.207031 8.519531 -15.679688 9.8125 -17.140625 C 11.113281 -18.597656 12.390625 -20.066406 13.640625 -21.546875 C 13.898438 -21.898438 14.085938 -22.3125 14.203125 -22.78125 C 14.328125 -23.25 14.460938 -23.695312 14.609375 -24.125 C 14.109375 -24.21875 13.617188 -24.320312 13.140625 -24.4375 C 12.660156 -24.550781 12.1875 -24.59375 11.71875 -24.5625 C 10.988281 -24.539062 10.265625 -24.441406 9.546875 -24.265625 C 8.835938 -24.085938 8.132812 -23.957031 7.4375 -23.875 C 6.675781 -23.78125 5.984375 -23.832031 5.359375 -24.03125 C 4.734375 -24.238281 4.273438 -24.753906 3.984375 -25.578125 C 3.710938 -26.335938 3.753906 -27 4.109375 -27.5625 C 4.460938 -28.132812 4.941406 -28.566406 5.546875 -28.859375 C 6.660156 -29.410156 7.769531 -29.945312 8.875 -30.46875 C 9.976562 -31 11.097656 -31.421875 12.234375 -31.734375 C 14.160156 -32.265625 15.894531 -32.1875 17.4375 -31.5 C 18.988281 -30.8125 20.347656 -29.679688 21.515625 -28.109375 C 22.617188 -26.566406 23.1875 -24.960938 23.21875 -23.296875 C 23.25 -21.640625 22.691406 -19.992188 21.546875 -18.359375 C 20.703125 -17.140625 19.773438 -15.984375 18.765625 -14.890625 C 17.765625 -13.796875 16.785156 -12.691406 15.828125 -11.578125 C 15.472656 -11.171875 15.128906 -10.765625 14.796875 -10.359375 C 14.460938 -9.953125 14.117188 -9.546875 13.765625 -9.140625 Z M 13.765625 -9.140625 "/></g></g></g><g fill="#000000" fill-opacity="1"><g transform="translate(238.079149, 261.028137)"><g><path d="M 11.671875 -25.140625 C 11.671875 -24.585938 11.65625 -23.734375 11.625 -22.578125 C 11.59375 -21.429688 11.539062 -20.132812 11.46875 -18.6875 C 11.394531 -17.25 11.320312 -15.789062 11.25 -14.3125 C 11.175781 -12.84375 11.109375 -11.507812 11.046875 -10.3125 C 10.992188 -9.125 10.96875 -8.207031 10.96875 -7.5625 C 10.945312 -6.425781 10.71875 -5.363281 10.28125 -4.375 C 9.84375 -3.382812 9.15625 -2.507812 8.21875 -1.75 C 6.675781 -0.46875 5.191406 -0.507812 3.765625 -1.875 C 3.085938 -2.519531 2.5625 -3.21875 2.1875 -3.96875 C 1.8125 -4.726562 1.625 -5.5625 1.625 -6.46875 C 1.675781 -9.726562 1.828125 -12.976562 2.078125 -16.21875 C 2.328125 -19.457031 2.859375 -22.664062 3.671875 -25.84375 C 3.816406 -26.425781 3.984375 -27.015625 4.171875 -27.609375 C 4.359375 -28.203125 4.644531 -28.71875 5.03125 -29.15625 C 5.40625 -29.59375 5.875 -29.976562 6.4375 -30.3125 C 7.007812 -30.65625 7.570312 -30.867188 8.125 -30.953125 C 8.851562 -31.066406 9.472656 -30.890625 9.984375 -30.421875 C 10.492188 -29.960938 10.867188 -29.394531 11.109375 -28.71875 C 11.273438 -28.132812 11.398438 -27.535156 11.484375 -26.921875 C 11.578125 -26.316406 11.640625 -25.722656 11.671875 -25.140625 Z M 11.671875 -25.140625 "/></g></g></g><g fill="#000000" fill-opacity="1"><g transform="translate(251.367261, 261.028137)"><g><path d="M 13.765625 -9.140625 C 13.796875 -9.078125 13.828125 -9.007812 13.859375 -8.9375 C 13.890625 -8.863281 13.929688 -8.800781 13.984375 -8.75 C 14.398438 -8.75 14.816406 -8.757812 15.234375 -8.78125 C 15.660156 -8.8125 16.078125 -8.828125 16.484375 -8.828125 C 17.097656 -8.859375 17.707031 -8.894531 18.3125 -8.9375 C 18.925781 -8.976562 19.523438 -8.957031 20.109375 -8.875 C 21.160156 -8.726562 22.015625 -8.257812 22.671875 -7.46875 C 23.328125 -6.6875 23.671875 -5.785156 23.703125 -4.765625 C 23.703125 -3.710938 23.410156 -2.75 22.828125 -1.875 C 22.242188 -1 21.425781 -0.519531 20.375 -0.4375 C 17.8125 -0.226562 15.238281 -0.0820312 12.65625 0 C 10.070312 0.0820312 7.515625 -0.238281 4.984375 -0.96875 C 3.960938 -1.28125 3.160156 -1.785156 2.578125 -2.484375 C 1.992188 -3.191406 1.671875 -4.003906 1.609375 -4.921875 C 1.554688 -5.835938 1.789062 -6.757812 2.3125 -7.6875 C 2.8125 -8.59375 3.378906 -9.460938 4.015625 -10.296875 C 4.660156 -11.128906 5.316406 -11.9375 5.984375 -12.71875 C 7.242188 -14.207031 8.519531 -15.679688 9.8125 -17.140625 C 11.113281 -18.597656 12.390625 -20.066406 13.640625 -21.546875 C 13.898438 -21.898438 14.085938 -22.3125 14.203125 -22.78125 C 14.328125 -23.25 14.460938 -23.695312 14.609375 -24.125 C 14.109375 -24.21875 13.617188 -24.320312 13.140625 -24.4375 C 12.660156 -24.550781 12.1875 -24.59375 11.71875 -24.5625 C 10.988281 -24.539062 10.265625 -24.441406 9.546875 -24.265625 C 8.835938 -24.085938 8.132812 -23.957031 7.4375 -23.875 C 6.675781 -23.78125 5.984375 -23.832031 5.359375 -24.03125 C 4.734375 -24.238281 4.273438 -24.753906 3.984375 -25.578125 C 3.710938 -26.335938 3.753906 -27 4.109375 -27.5625 C 4.460938 -28.132812 4.941406 -28.566406 5.546875 -28.859375 C 6.660156 -29.410156 7.769531 -29.945312 8.875 -30.46875 C 9.976562 -31 11.097656 -31.421875 12.234375 -31.734375 C 14.160156 -32.265625 15.894531 -32.1875 17.4375 -31.5 C 18.988281 -30.8125 20.347656 -29.679688 21.515625 -28.109375 C 22.617188 -26.566406 23.1875 -24.960938 23.21875 -23.296875 C 23.25 -21.640625 22.691406 -19.992188 21.546875 -18.359375 C 20.703125 -17.140625 19.773438 -15.984375 18.765625 -14.890625 C 17.765625 -13.796875 16.785156 -12.691406 15.828125 -11.578125 C 15.472656 -11.171875 15.128906 -10.765625 14.796875 -10.359375 C 14.460938 -9.953125 14.117188 -9.546875 13.765625 -9.140625 Z M 13.765625 -9.140625 "/></g></g></g></svg>