<svg xmlns="http://www.w3.org/2000/svg" xmlns:xlink="http://www.w3.org/1999/xlink" width="500" zoomAndPan="magnify" viewBox="0 0 375 374.999991" height="500" preserveAspectRatio="xMidYMid meet" version="1.0"><defs><g/><clipPath id="35d5e24ae8"><path d="M 69.058594 11.441406 L 189 11.441406 L 189 133 L 69.058594 133 Z M 69.058594 11.441406 " clip-rule="nonzero"/></clipPath><clipPath id="042cb8bba1"><path d="M 167 11.441406 L 316 11.441406 L 316 129 L 167 129 Z M 167 11.441406 " clip-rule="nonzero"/></clipPath></defs><g fill="#000000" fill-opacity="1"><g transform="translate(113.288984, 345.895993)"><g><path d="M 1.0625 -11.171875 L 3.390625 -11.171875 L 3.390625 -2.09375 L 7.890625 -2.09375 L 7.890625 0 L 1.0625 0 Z M 1.0625 -11.171875 "/></g></g></g><g fill="#000000" fill-opacity="1"><g transform="translate(121.403977, 345.895993)"><g><path d="M 6 -7.578125 L 8.125 -7.578125 L 8.125 0 L 6 0 L 6 -0.546875 C 5.84375 -0.316406 5.582031 -0.140625 5.21875 -0.015625 C 4.863281 0.109375 4.507812 0.171875 4.15625 0.171875 C 3.46875 0.171875 2.84375 -0.0078125 2.28125 -0.375 C 1.71875 -0.738281 1.269531 -1.21875 0.9375 -1.8125 C 0.601562 -2.40625 0.4375 -3.0625 0.4375 -3.78125 C 0.4375 -4.507812 0.601562 -5.171875 0.9375 -5.765625 C 1.28125 -6.367188 1.734375 -6.847656 2.296875 -7.203125 C 2.867188 -7.554688 3.488281 -7.734375 4.15625 -7.734375 C 4.5 -7.734375 4.851562 -7.660156 5.21875 -7.515625 C 5.582031 -7.378906 5.84375 -7.222656 6 -7.046875 Z M 4.359375 -1.953125 C 4.859375 -1.953125 5.269531 -2.117188 5.59375 -2.453125 C 5.925781 -2.796875 6.09375 -3.238281 6.09375 -3.78125 C 6.09375 -4.3125 5.925781 -4.75 5.59375 -5.09375 C 5.269531 -5.4375 4.859375 -5.609375 4.359375 -5.609375 C 3.867188 -5.609375 3.453125 -5.4375 3.109375 -5.09375 C 2.765625 -4.75 2.59375 -4.3125 2.59375 -3.78125 C 2.59375 -3.238281 2.765625 -2.796875 3.109375 -2.453125 C 3.453125 -2.117188 3.867188 -1.953125 4.359375 -1.953125 Z M 4.359375 -1.953125 "/></g></g></g><g fill="#000000" fill-opacity="1"><g transform="translate(130.283974, 345.895993)"><g/></g></g><g fill="#000000" fill-opacity="1"><g transform="translate(136.598972, 345.895993)"><g><path d="M 8.140625 -3.78125 L 8.140625 0 L 6.015625 0 L 6.015625 -3.78125 C 6.015625 -4.425781 5.859375 -4.890625 5.546875 -5.171875 C 5.242188 -5.460938 4.851562 -5.609375 4.375 -5.609375 C 4.113281 -5.609375 3.867188 -5.523438 3.640625 -5.359375 C 3.410156 -5.191406 3.222656 -4.972656 3.078125 -4.703125 C 2.941406 -4.429688 2.875 -4.125 2.875 -3.78125 L 2.875 0 L 0.75 0 L 0.75 -7.578125 L 2.875 -7.578125 L 2.875 -7.046875 C 3.050781 -7.253906 3.320312 -7.421875 3.6875 -7.546875 C 4.0625 -7.671875 4.410156 -7.734375 4.734375 -7.734375 C 5.296875 -7.734375 5.804688 -7.617188 6.265625 -7.390625 C 6.734375 -7.171875 7.082031 -6.890625 7.3125 -6.546875 C 7.550781 -6.859375 7.828125 -7.101562 8.140625 -7.28125 C 8.460938 -7.457031 8.785156 -7.578125 9.109375 -7.640625 C 9.441406 -7.703125 9.738281 -7.734375 10 -7.734375 C 10.78125 -7.734375 11.425781 -7.554688 11.9375 -7.203125 C 12.445312 -6.847656 12.828125 -6.367188 13.078125 -5.765625 C 13.328125 -5.171875 13.453125 -4.507812 13.453125 -3.78125 L 13.453125 0 L 11.34375 0 L 11.34375 -3.78125 C 11.34375 -4.363281 11.1875 -4.8125 10.875 -5.125 C 10.570312 -5.445312 10.207031 -5.609375 9.78125 -5.609375 C 9.320312 -5.609375 8.929688 -5.425781 8.609375 -5.0625 C 8.296875 -4.707031 8.140625 -4.28125 8.140625 -3.78125 Z M 8.140625 -3.78125 "/></g></g></g><g fill="#000000" fill-opacity="1"><g transform="translate(150.698962, 345.895993)"><g><path d="M 6 -7.578125 L 8.125 -7.578125 L 8.125 0 L 6 0 L 6 -0.546875 C 5.84375 -0.316406 5.582031 -0.140625 5.21875 -0.015625 C 4.863281 0.109375 4.507812 0.171875 4.15625 0.171875 C 3.46875 0.171875 2.84375 -0.0078125 2.28125 -0.375 C 1.71875 -0.738281 1.269531 -1.21875 0.9375 -1.8125 C 0.601562 -2.40625 0.4375 -3.0625 0.4375 -3.78125 C 0.4375 -4.507812 0.601562 -5.171875 0.9375 -5.765625 C 1.28125 -6.367188 1.734375 -6.847656 2.296875 -7.203125 C 2.867188 -7.554688 3.488281 -7.734375 4.15625 -7.734375 C 4.5 -7.734375 4.851562 -7.660156 5.21875 -7.515625 C 5.582031 -7.378906 5.84375 -7.222656 6 -7.046875 Z M 4.359375 -1.953125 C 4.859375 -1.953125 5.269531 -2.117188 5.59375 -2.453125 C 5.925781 -2.796875 6.09375 -3.238281 6.09375 -3.78125 C 6.09375 -4.3125 5.925781 -4.75 5.59375 -5.09375 C 5.269531 -5.4375 4.859375 -5.609375 4.359375 -5.609375 C 3.867188 -5.609375 3.453125 -5.4375 3.109375 -5.09375 C 2.765625 -4.75 2.59375 -4.3125 2.59375 -3.78125 C 2.59375 -3.238281 2.765625 -2.796875 3.109375 -2.453125 C 3.453125 -2.117188 3.867188 -1.953125 4.359375 -1.953125 Z M 4.359375 -1.953125 "/></g></g></g><g fill="#000000" fill-opacity="1"><g transform="translate(159.578959, 345.895993)"><g><path d="M 2.875 -7.578125 L 2.875 0 L 0.75 0 L 0.75 -7.578125 Z M 1.84375 -11.703125 L 4.3125 -8.609375 L 2.3125 -8.609375 L 1.84375 -9.25 L 1.359375 -8.609375 L -0.625 -8.609375 Z M 1.84375 -11.703125 "/></g></g></g><g fill="#000000" fill-opacity="1"><g transform="translate(163.208956, 345.895993)"><g><path d="M 5.1875 -5.609375 L 3.390625 -5.609375 L 3.390625 -3.1875 C 3.390625 -2.757812 3.554688 -2.445312 3.890625 -2.25 C 4.234375 -2.050781 4.648438 -1.953125 5.140625 -1.953125 L 5.140625 0.171875 C 4.390625 0.171875 3.722656 0.0351562 3.140625 -0.234375 C 2.554688 -0.515625 2.097656 -0.90625 1.765625 -1.40625 C 1.429688 -1.90625 1.265625 -2.484375 1.265625 -3.140625 L 1.265625 -5.609375 L 0.125 -5.609375 L 0.125 -7.578125 L 1.265625 -7.578125 L 1.265625 -8.5625 L 3.390625 -10.109375 L 3.390625 -7.578125 L 5.1875 -7.578125 Z M 5.1875 -5.609375 "/></g></g></g><g fill="#000000" fill-opacity="1"><g transform="translate(168.623945, 345.895993)"><g><path d="M 5.078125 -7.703125 L 5.078125 -5.5 C 4.878906 -5.570312 4.65625 -5.609375 4.40625 -5.609375 C 4 -5.609375 3.640625 -5.453125 3.328125 -5.140625 C 3.023438 -4.835938 2.875 -4.382812 2.875 -3.78125 L 2.875 0 L 0.75 0 L 0.75 -7.578125 L 2.875 -7.578125 L 2.875 -7.046875 C 3.101562 -7.296875 3.367188 -7.472656 3.671875 -7.578125 C 3.972656 -7.679688 4.269531 -7.734375 4.5625 -7.734375 C 4.644531 -7.734375 4.726562 -7.734375 4.8125 -7.734375 C 4.894531 -7.734375 4.984375 -7.722656 5.078125 -7.703125 Z M 5.078125 -7.703125 "/></g></g></g><g fill="#000000" fill-opacity="1"><g transform="translate(173.903939, 345.895993)"><g><path d="M 1.796875 -8.90625 C 1.472656 -8.90625 1.1875 -9.023438 0.9375 -9.265625 C 0.6875 -9.503906 0.5625 -9.789062 0.5625 -10.125 C 0.5625 -10.425781 0.6875 -10.695312 0.9375 -10.9375 C 1.1875 -11.175781 1.472656 -11.296875 1.796875 -11.296875 C 2.160156 -11.296875 2.460938 -11.175781 2.703125 -10.9375 C 2.953125 -10.707031 3.078125 -10.4375 3.078125 -10.125 C 3.078125 -9.789062 2.953125 -9.503906 2.703125 -9.265625 C 2.460938 -9.023438 2.160156 -8.90625 1.796875 -8.90625 Z M 2.875 -7.578125 L 2.875 0 L 0.75 0 L 0.75 -7.578125 Z M 2.875 -7.578125 "/></g></g></g><g fill="#000000" fill-opacity="1"><g transform="translate(177.533936, 345.895993)"><g><path d="M 2.703125 -3.046875 C 2.015625 -3.140625 1.445312 -3.398438 1 -3.828125 C 0.5625 -4.265625 0.34375 -4.800781 0.34375 -5.4375 C 0.34375 -5.882812 0.472656 -6.28125 0.734375 -6.625 C 0.992188 -6.96875 1.316406 -7.238281 1.703125 -7.4375 C 2.085938 -7.632812 2.460938 -7.734375 2.828125 -7.734375 C 3.796875 -7.734375 4.550781 -7.34375 5.09375 -6.5625 L 3.5625 -5.4375 C 3.46875 -5.53125 3.363281 -5.609375 3.25 -5.671875 C 3.144531 -5.734375 3.019531 -5.765625 2.875 -5.765625 C 2.738281 -5.765625 2.628906 -5.722656 2.546875 -5.640625 C 2.472656 -5.566406 2.4375 -5.476562 2.4375 -5.375 C 2.4375 -5.238281 2.492188 -5.132812 2.609375 -5.0625 C 2.722656 -4.988281 2.929688 -4.929688 3.234375 -4.890625 C 3.941406 -4.796875 4.53125 -4.554688 5 -4.171875 C 5.46875 -3.785156 5.703125 -3.207031 5.703125 -2.4375 C 5.703125 -1.925781 5.570312 -1.472656 5.3125 -1.078125 C 5.050781 -0.691406 4.703125 -0.382812 4.265625 -0.15625 C 3.828125 0.0625 3.335938 0.171875 2.796875 0.171875 C 2.234375 0.171875 1.738281 0.0703125 1.3125 -0.125 C 0.882812 -0.320312 0.507812 -0.601562 0.1875 -0.96875 L 1.984375 -2.28125 C 2.191406 -2.0625 2.46875 -1.953125 2.8125 -1.953125 C 3.007812 -1.953125 3.148438 -2 3.234375 -2.09375 C 3.328125 -2.195312 3.375 -2.316406 3.375 -2.453125 C 3.375 -2.609375 3.320312 -2.734375 3.21875 -2.828125 C 3.113281 -2.929688 2.941406 -3.003906 2.703125 -3.046875 Z M 2.703125 -3.046875 "/></g></g></g><g fill="#000000" fill-opacity="1"><g transform="translate(183.563931, 345.895993)"><g><path d="M 6.1875 -2.71875 L 7.875 -1.40625 C 7.550781 -0.925781 7.082031 -0.539062 6.46875 -0.25 C 5.863281 0.03125 5.222656 0.171875 4.546875 0.171875 C 3.972656 0.171875 3.4375 0.0664062 2.9375 -0.140625 C 2.445312 -0.347656 2.007812 -0.632812 1.625 -1 C 1.25 -1.363281 0.957031 -1.78125 0.75 -2.25 C 0.539062 -2.726562 0.4375 -3.238281 0.4375 -3.78125 C 0.4375 -4.507812 0.613281 -5.171875 0.96875 -5.765625 C 1.320312 -6.367188 1.796875 -6.847656 2.390625 -7.203125 C 2.984375 -7.554688 3.640625 -7.734375 4.359375 -7.734375 C 4.992188 -7.734375 5.566406 -7.609375 6.078125 -7.359375 C 6.585938 -7.109375 7.019531 -6.78125 7.375 -6.375 C 7.738281 -5.976562 7.992188 -5.539062 8.140625 -5.0625 L 3.921875 -2.046875 C 4.015625 -2.003906 4.113281 -1.976562 4.21875 -1.96875 C 4.320312 -1.957031 4.429688 -1.953125 4.546875 -1.953125 C 4.867188 -1.953125 5.175781 -2.007812 5.46875 -2.125 C 5.769531 -2.25 6.007812 -2.445312 6.1875 -2.71875 Z M 2.59375 -3.78125 C 2.59375 -3.582031 2.613281 -3.414062 2.65625 -3.28125 L 5.421875 -5.25 C 5.265625 -5.363281 5.097656 -5.453125 4.921875 -5.515625 C 4.753906 -5.578125 4.566406 -5.609375 4.359375 -5.609375 C 3.867188 -5.609375 3.453125 -5.4375 3.109375 -5.09375 C 2.765625 -4.75 2.59375 -4.3125 2.59375 -3.78125 Z M 2.59375 -3.78125 "/></g></g></g><g fill="#000000" fill-opacity="1"><g transform="translate(192.143921, 345.895993)"><g/></g></g><g fill="#000000" fill-opacity="1"><g transform="translate(198.458919, 345.895993)"><g><path d="M 6 -11.171875 L 8.125 -11.171875 L 8.125 0 L 6 0 L 6 -0.546875 C 5.84375 -0.316406 5.582031 -0.140625 5.21875 -0.015625 C 4.863281 0.109375 4.507812 0.171875 4.15625 0.171875 C 3.46875 0.171875 2.84375 -0.0078125 2.28125 -0.375 C 1.71875 -0.738281 1.269531 -1.21875 0.9375 -1.8125 C 0.601562 -2.40625 0.4375 -3.0625 0.4375 -3.78125 C 0.4375 -4.507812 0.601562 -5.171875 0.9375 -5.765625 C 1.28125 -6.367188 1.734375 -6.847656 2.296875 -7.203125 C 2.867188 -7.554688 3.488281 -7.734375 4.15625 -7.734375 C 4.5 -7.734375 4.851562 -7.660156 5.21875 -7.515625 C 5.582031 -7.378906 5.84375 -7.222656 6 -7.046875 Z M 4.359375 -1.953125 C 4.859375 -1.953125 5.269531 -2.117188 5.59375 -2.453125 C 5.925781 -2.796875 6.09375 -3.238281 6.09375 -3.78125 C 6.09375 -4.3125 5.925781 -4.75 5.59375 -5.09375 C 5.269531 -5.4375 4.859375 -5.609375 4.359375 -5.609375 C 3.867188 -5.609375 3.453125 -5.4375 3.109375 -5.09375 C 2.765625 -4.75 2.59375 -4.3125 2.59375 -3.78125 C 2.59375 -3.238281 2.765625 -2.796875 3.109375 -2.453125 C 3.453125 -2.117188 3.867188 -1.953125 4.359375 -1.953125 Z M 4.359375 -1.953125 "/></g></g></g><g fill="#000000" fill-opacity="1"><g transform="translate(207.338916, 345.895993)"><g><path d="M 0.640625 -3.625 L 0.640625 -7.578125 L 2.78125 -7.578125 L 2.78125 -3.8125 C 2.78125 -3.257812 2.929688 -2.8125 3.234375 -2.46875 C 3.535156 -2.125 3.898438 -1.953125 4.328125 -1.953125 C 4.648438 -1.953125 4.945312 -2.007812 5.21875 -2.125 C 5.5 -2.238281 5.726562 -2.429688 5.90625 -2.703125 C 6.082031 -2.984375 6.171875 -3.351562 6.171875 -3.8125 L 6.171875 -7.578125 L 8.28125 -7.578125 L 8.28125 0 L 6.171875 0 L 6.171875 -0.546875 C 5.941406 -0.304688 5.617188 -0.125 5.203125 0 C 4.796875 0.113281 4.410156 0.171875 4.046875 0.171875 C 3.390625 0.171875 2.800781 0 2.28125 -0.34375 C 1.769531 -0.695312 1.367188 -1.160156 1.078125 -1.734375 C 0.785156 -2.304688 0.640625 -2.9375 0.640625 -3.625 Z M 0.640625 -3.625 "/></g></g></g><g fill="#000000" fill-opacity="1"><g transform="translate(216.36891, 345.895993)"><g/></g></g><g fill="#000000" fill-opacity="1"><g transform="translate(222.683908, 345.895993)"><g><path d="M 6 -11.171875 L 8.125 -11.171875 L 8.125 0 L 6 0 L 6 -0.546875 C 5.84375 -0.316406 5.582031 -0.140625 5.21875 -0.015625 C 4.863281 0.109375 4.507812 0.171875 4.15625 0.171875 C 3.46875 0.171875 2.84375 -0.0078125 2.28125 -0.375 C 1.71875 -0.738281 1.269531 -1.21875 0.9375 -1.8125 C 0.601562 -2.40625 0.4375 -3.0625 0.4375 -3.78125 C 0.4375 -4.507812 0.601562 -5.171875 0.9375 -5.765625 C 1.28125 -6.367188 1.734375 -6.847656 2.296875 -7.203125 C 2.867188 -7.554688 3.488281 -7.734375 4.15625 -7.734375 C 4.5 -7.734375 4.851562 -7.660156 5.21875 -7.515625 C 5.582031 -7.378906 5.84375 -7.222656 6 -7.046875 Z M 4.359375 -1.953125 C 4.859375 -1.953125 5.269531 -2.117188 5.59375 -2.453125 C 5.925781 -2.796875 6.09375 -3.238281 6.09375 -3.78125 C 6.09375 -4.3125 5.925781 -4.75 5.59375 -5.09375 C 5.269531 -5.4375 4.859375 -5.609375 4.359375 -5.609375 C 3.867188 -5.609375 3.453125 -5.4375 3.109375 -5.09375 C 2.765625 -4.75 2.59375 -4.3125 2.59375 -3.78125 C 2.59375 -3.238281 2.765625 -2.796875 3.109375 -2.453125 C 3.453125 -2.117188 3.867188 -1.953125 4.359375 -1.953125 Z M 4.359375 -1.953125 "/></g></g></g><g fill="#000000" fill-opacity="1"><g transform="translate(231.563905, 345.895993)"><g><path d="M 6.1875 -2.71875 L 7.875 -1.40625 C 7.550781 -0.925781 7.082031 -0.539062 6.46875 -0.25 C 5.863281 0.03125 5.222656 0.171875 4.546875 0.171875 C 3.972656 0.171875 3.4375 0.0664062 2.9375 -0.140625 C 2.445312 -0.347656 2.007812 -0.632812 1.625 -1 C 1.25 -1.363281 0.957031 -1.78125 0.75 -2.25 C 0.539062 -2.726562 0.4375 -3.238281 0.4375 -3.78125 C 0.4375 -4.507812 0.613281 -5.171875 0.96875 -5.765625 C 1.320312 -6.367188 1.796875 -6.847656 2.390625 -7.203125 C 2.984375 -7.554688 3.640625 -7.734375 4.359375 -7.734375 C 4.992188 -7.734375 5.566406 -7.609375 6.078125 -7.359375 C 6.585938 -7.109375 7.019531 -6.78125 7.375 -6.375 C 7.738281 -5.976562 7.992188 -5.539062 8.140625 -5.0625 L 3.921875 -2.046875 C 4.015625 -2.003906 4.113281 -1.976562 4.21875 -1.96875 C 4.320312 -1.957031 4.429688 -1.953125 4.546875 -1.953125 C 4.867188 -1.953125 5.175781 -2.007812 5.46875 -2.125 C 5.769531 -2.25 6.007812 -2.445312 6.1875 -2.71875 Z M 4.515625 -11.40625 L 5.90625 -10.390625 L 4.734375 -8.609375 L 2.734375 -8.609375 Z M 2.59375 -3.78125 C 2.59375 -3.707031 2.59375 -3.644531 2.59375 -3.59375 C 2.601562 -3.539062 2.613281 -3.488281 2.625 -3.4375 L 5.296875 -5.34375 C 5.160156 -5.414062 5.015625 -5.476562 4.859375 -5.53125 C 4.710938 -5.582031 4.546875 -5.609375 4.359375 -5.609375 C 3.867188 -5.609375 3.453125 -5.4375 3.109375 -5.09375 C 2.765625 -4.75 2.59375 -4.3125 2.59375 -3.78125 Z M 2.59375 -3.78125 "/></g></g></g><g fill="#000000" fill-opacity="1"><g transform="translate(240.143895, 345.895993)"><g><path d="M 5.1875 -5.609375 L 3.390625 -5.609375 L 3.390625 -3.1875 C 3.390625 -2.757812 3.554688 -2.445312 3.890625 -2.25 C 4.234375 -2.050781 4.648438 -1.953125 5.140625 -1.953125 L 5.140625 0.171875 C 4.390625 0.171875 3.722656 0.0351562 3.140625 -0.234375 C 2.554688 -0.515625 2.097656 -0.90625 1.765625 -1.40625 C 1.429688 -1.90625 1.265625 -2.484375 1.265625 -3.140625 L 1.265625 -5.609375 L 0.125 -5.609375 L 0.125 -7.578125 L 1.265625 -7.578125 L 1.265625 -8.5625 L 3.390625 -10.109375 L 3.390625 -7.578125 L 5.1875 -7.578125 Z M 5.1875 -5.609375 "/></g></g></g><g fill="#000000" fill-opacity="1"><g transform="translate(245.558884, 345.895993)"><g><path d="M 6 -7.578125 L 8.125 -7.578125 L 8.125 0 L 6 0 L 6 -0.546875 C 5.84375 -0.316406 5.582031 -0.140625 5.21875 -0.015625 C 4.863281 0.109375 4.507812 0.171875 4.15625 0.171875 C 3.46875 0.171875 2.84375 -0.0078125 2.28125 -0.375 C 1.71875 -0.738281 1.269531 -1.21875 0.9375 -1.8125 C 0.601562 -2.40625 0.4375 -3.0625 0.4375 -3.78125 C 0.4375 -4.507812 0.601562 -5.171875 0.9375 -5.765625 C 1.28125 -6.367188 1.734375 -6.847656 2.296875 -7.203125 C 2.867188 -7.554688 3.488281 -7.734375 4.15625 -7.734375 C 4.5 -7.734375 4.851562 -7.660156 5.21875 -7.515625 C 5.582031 -7.378906 5.84375 -7.222656 6 -7.046875 Z M 4.359375 -1.953125 C 4.859375 -1.953125 5.269531 -2.117188 5.59375 -2.453125 C 5.925781 -2.796875 6.09375 -3.238281 6.09375 -3.78125 C 6.09375 -4.3125 5.925781 -4.75 5.59375 -5.09375 C 5.269531 -5.4375 4.859375 -5.609375 4.359375 -5.609375 C 3.867188 -5.609375 3.453125 -5.4375 3.109375 -5.09375 C 2.765625 -4.75 2.59375 -4.3125 2.59375 -3.78125 C 2.59375 -3.238281 2.765625 -2.796875 3.109375 -2.453125 C 3.453125 -2.117188 3.867188 -1.953125 4.359375 -1.953125 Z M 4.359375 -1.953125 "/></g></g></g><g fill="#000000" fill-opacity="1"><g transform="translate(254.438881, 345.895993)"><g><path d="M 1.796875 -8.90625 C 1.472656 -8.90625 1.1875 -9.023438 0.9375 -9.265625 C 0.6875 -9.503906 0.5625 -9.789062 0.5625 -10.125 C 0.5625 -10.425781 0.6875 -10.695312 0.9375 -10.9375 C 1.1875 -11.175781 1.472656 -11.296875 1.796875 -11.296875 C 2.160156 -11.296875 2.460938 -11.175781 2.703125 -10.9375 C 2.953125 -10.707031 3.078125 -10.4375 3.078125 -10.125 C 3.078125 -9.789062 2.953125 -9.503906 2.703125 -9.265625 C 2.460938 -9.023438 2.160156 -8.90625 1.796875 -8.90625 Z M 2.875 -7.578125 L 2.875 0 L 0.75 0 L 0.75 -7.578125 Z M 2.875 -7.578125 "/></g></g></g><g fill="#000000" fill-opacity="1"><g transform="translate(258.068878, 345.895993)"><g><path d="M 0.75 -11.171875 L 2.875 -11.171875 L 2.875 0 L 0.75 0 Z M 0.75 -11.171875 "/></g></g></g><g clip-path="url(#35d5e24ae8)"><path fill="#9823c6" d="M 146.25 89.597656 C 149.160156 86.632812 151.296875 83.84375 152.664062 81.230469 L 186.960938 17.492188 C 188.386719 14.875 188.671875 13.160156 187.816406 12.34375 C 187.015625 11.480469 185.308594 11.761719 182.683594 13.210938 L 120.328125 48.273438 C 117.707031 49.785156 114.996094 51.964844 112.207031 54.808594 C 109.292969 57.773438 107.160156 60.5625 105.789062 63.179688 L 71.40625 126.742188 C 69.921875 129.359375 69.613281 131.101562 70.460938 131.980469 C 71.261719 132.796875 72.96875 132.472656 75.59375 131.019531 L 138.113281 96.136719 C 140.734375 94.625 143.449219 92.445312 146.238281 89.601562 Z M 146.25 89.597656 " fill-opacity="1" fill-rule="evenodd"/></g><path fill="#ffc34e" d="M 290.992188 113.476562 C 290.535156 110.105469 289.253906 107.34375 287.140625 105.191406 L 225.648438 42.542969 C 223.539062 40.390625 221.257812 39.488281 218.808594 39.835938 C 216.300781 40.191406 214.335938 41.695312 212.90625 44.371094 L 178.523438 107.980469 C 177.097656 110.59375 176.640625 113.617188 177.152344 117.046875 C 177.609375 120.417969 178.867188 123.179688 180.914062 125.332031 L 242.410156 187.925781 C 244.464844 190.078125 246.738281 190.949219 249.25 190.542969 C 251.757812 190.1875 253.722656 188.710938 255.152344 186.09375 L 289.535156 122.53125 C 290.960938 119.855469 291.445312 116.835938 290.992188 113.464844 Z M 290.992188 113.476562 " fill-opacity="1" fill-rule="evenodd"/><path fill="#ff3e3c" d="M 218.941406 221.082031 C 219.335938 218.519531 218.488281 216.199219 216.378906 214.105469 L 154.929688 151.414062 C 152.820312 149.316406 150.109375 148.042969 146.804688 147.578125 C 143.4375 147.054688 140.476562 147.519531 137.910156 148.972656 L 75.476562 184.023438 C 72.910156 185.480469 71.460938 187.480469 71.117188 190.039062 C 70.722656 192.539062 71.570312 194.859375 73.683594 197.015625 L 135.175781 259.703125 C 137.285156 261.851562 139.992188 263.15625 143.296875 263.625 C 146.605469 264.09375 149.570312 263.597656 152.191406 262.144531 L 214.542969 227.097656 C 217.109375 225.640625 218.558594 223.640625 218.902344 221.082031 Z M 218.941406 221.082031 " fill-opacity="1" fill-rule="evenodd"/><g clip-path="url(#042cb8bba1)"><path fill="#26c4ff" d="M 315.558594 85.589844 C 315.902344 83.03125 315.046875 80.679688 312.992188 78.527344 L 251.5 15.925781 C 249.445312 13.773438 246.769531 12.464844 243.464844 12.003906 C 240.097656 11.539062 237.132812 12.03125 234.570312 13.484375 L 172.132812 48.445312 C 169.511719 49.902344 168.027344 51.902344 167.683594 54.460938 C 167.339844 57.019531 168.226562 59.375 170.335938 61.523438 L 231.828125 124.210938 C 233.9375 126.363281 236.644531 127.667969 239.953125 128.136719 C 243.257812 128.605469 246.195312 128.109375 248.761719 126.65625 L 311.109375 91.605469 C 313.734375 90.148438 315.214844 88.148438 315.558594 85.589844 Z M 315.558594 85.589844 " fill-opacity="1" fill-rule="evenodd"/></g><path fill="#fe0fa6" d="M 316.242188 143.390625 C 315.445312 142.523438 313.738281 142.804688 311.109375 144.253906 L 248.679688 179.136719 C 246.058594 180.648438 243.316406 182.828125 240.46875 185.671875 C 237.617188 188.636719 235.476562 191.425781 234.054688 194.042969 L 199.84375 257.78125 C 198.417969 260.394531 198.101562 262.136719 198.898438 263.015625 C 199.753906 263.882812 201.464844 263.566406 204.03125 262.054688 L 266.382812 227.003906 C 268.949219 225.546875 271.683594 223.371094 274.589844 220.46875 C 277.347656 217.566406 279.523438 214.773438 281.007812 212.101562 L 315.390625 148.539062 C 316.8125 145.925781 317.101562 144.207031 316.242188 143.394531 Z M 316.242188 143.390625 " fill-opacity="1" fill-rule="evenodd"/><path fill="#98d843" d="M 208.523438 167.648438 C 209.949219 165.035156 210.433594 162.011719 209.980469 158.582031 C 209.523438 155.210938 208.242188 152.449219 206.132812 150.296875 L 144.636719 87.609375 C 142.527344 85.460938 140.242188 84.585938 137.796875 84.996094 C 135.289062 85.351562 133.320312 86.828125 131.890625 89.445312 L 97.511719 153.089844 C 96.089844 155.765625 95.632812 158.785156 96.144531 162.15625 C 96.601562 165.527344 97.855469 168.289062 99.90625 170.441406 L 161.398438 233.035156 C 163.453125 235.1875 165.726562 236.085938 168.238281 235.742188 C 170.75 235.394531 172.714844 233.882812 174.140625 231.207031 Z M 208.523438 167.648438 " fill-opacity="1" fill-rule="evenodd"/><g fill="#000000" fill-opacity="1"><g transform="translate(63.747869, 320.14873)"><g><path d="M 38.203125 -35.328125 C 38.765625 -31.953125 38.457031 -28.804688 37.28125 -25.890625 C 36.101562 -22.984375 34.210938 -20.535156 31.609375 -18.546875 C 29.003906 -16.554688 25.867188 -15.253906 22.203125 -14.640625 C 21.390625 -14.484375 20.492188 -14.410156 19.515625 -14.421875 C 18.546875 -14.441406 17.570312 -14.472656 16.59375 -14.515625 C 16.101562 -14.554688 15.601562 -14.585938 15.09375 -14.609375 C 14.59375 -14.628906 14.097656 -14.640625 13.609375 -14.640625 L 12.9375 -14.640625 L 13 -13.0625 C 13.039062 -12.320312 13.078125 -11.441406 13.109375 -10.421875 C 13.148438 -9.410156 13.171875 -8.582031 13.171875 -7.9375 L 13.171875 -7.390625 C 13.140625 -6.691406 13.09375 -5.992188 13.03125 -5.296875 C 12.96875 -4.609375 12.8125 -3.984375 12.5625 -3.421875 C 12.082031 -2.203125 11.460938 -1.359375 10.703125 -0.890625 C 9.953125 -0.421875 9.273438 -0.144531 8.671875 -0.0625 C 7.847656 0.0625 7.09375 0.00390625 6.40625 -0.234375 C 5.71875 -0.484375 5.207031 -0.789062 4.875 -1.15625 L 4.703125 -1.28125 C 4.046875 -1.6875 3.65625 -2.265625 3.53125 -3.015625 C 3.414062 -3.773438 3.378906 -4.640625 3.421875 -5.609375 C 3.460938 -6.222656 3.5 -6.832031 3.53125 -7.4375 C 3.570312 -8.050781 3.613281 -8.679688 3.65625 -9.328125 C 3.738281 -10.515625 3.8125 -11.726562 3.875 -12.96875 C 3.9375 -14.207031 3.96875 -15.457031 3.96875 -16.71875 C 3.96875 -18.875 3.875 -21.050781 3.6875 -23.25 C 3.507812 -25.445312 3.316406 -27.625 3.109375 -29.78125 C 2.910156 -31.769531 2.726562 -33.78125 2.5625 -35.8125 C 2.394531 -37.84375 2.289062 -39.878906 2.25 -41.921875 C 2.25 -42.441406 2.257812 -42.957031 2.28125 -43.46875 C 2.300781 -43.976562 2.351562 -44.476562 2.4375 -44.96875 C 2.757812 -46.59375 3.613281 -47.628906 5 -48.078125 C 5.363281 -48.160156 5.726562 -48.203125 6.09375 -48.203125 C 7.113281 -48.203125 8.050781 -47.796875 8.90625 -46.984375 C 9.03125 -46.898438 9.171875 -46.71875 9.328125 -46.4375 C 9.453125 -46.269531 9.554688 -46.125 9.640625 -46 L 10.0625 -45.453125 L 10.5625 -45.828125 C 13.40625 -47.816406 16.65625 -48.972656 20.3125 -49.296875 C 23.488281 -49.546875 26.328125 -49.140625 28.828125 -48.078125 C 31.328125 -47.023438 33.390625 -45.421875 35.015625 -43.265625 C 36.648438 -41.109375 37.710938 -38.460938 38.203125 -35.328125 Z M 24.71875 -27.765625 C 27.238281 -30.160156 27.96875 -32.820312 26.90625 -35.75 C 26.414062 -37.050781 25.625 -37.945312 24.53125 -38.4375 C 23.632812 -38.800781 22.578125 -38.898438 21.359375 -38.734375 C 20.140625 -38.578125 18.988281 -38.203125 17.90625 -37.609375 C 16.832031 -37.023438 16.03125 -36.285156 15.5 -35.390625 C 13.707031 -32.503906 12.8125 -29.023438 12.8125 -24.953125 L 12.8125 -24.34375 L 13.421875 -24.28125 C 13.910156 -24.28125 14.359375 -24.28125 14.765625 -24.28125 C 18.992188 -24.28125 22.3125 -25.441406 24.71875 -27.765625 Z M 24.71875 -27.765625 "/></g></g></g><g fill="#000000" fill-opacity="1"><g transform="translate(104.501033, 320.14873)"><g><path d="M 27.390625 -24.21875 C 27.554688 -23.65625 27.585938 -22.992188 27.484375 -22.234375 C 27.378906 -21.484375 27.144531 -20.90625 26.78125 -20.5 C 26.457031 -20.09375 25.9375 -19.816406 25.21875 -19.671875 C 24.507812 -19.535156 23.851562 -19.488281 23.25 -19.53125 C 22.632812 -19.570312 22.019531 -19.742188 21.40625 -20.046875 C 20.800781 -20.347656 20.210938 -20.640625 19.640625 -20.921875 C 18.828125 -21.328125 18.113281 -21.4375 17.5 -21.25 C 16.894531 -21.070312 16.472656 -20.597656 16.234375 -19.828125 C 15.210938 -17.023438 14.378906 -14.140625 13.734375 -11.171875 C 13.566406 -10.515625 13.535156 -9.828125 13.640625 -9.109375 C 13.742188 -8.398438 13.753906 -7.703125 13.671875 -7.015625 C 13.546875 -5.515625 12.984375 -4.285156 11.984375 -3.328125 C 10.992188 -2.367188 9.804688 -1.847656 8.421875 -1.765625 C 6.992188 -1.679688 5.75 -2.054688 4.6875 -2.890625 C 3.632812 -3.734375 2.925781 -4.882812 2.5625 -6.34375 C 2.476562 -6.707031 2.40625 -7.070312 2.34375 -7.4375 C 2.28125 -7.8125 2.25 -8.203125 2.25 -8.609375 C 2.289062 -12.222656 2.320312 -15.847656 2.34375 -19.484375 C 2.363281 -23.128906 2.394531 -26.765625 2.4375 -30.390625 C 2.4375 -30.753906 2.457031 -31.148438 2.5 -31.578125 C 2.539062 -32.003906 2.679688 -32.335938 2.921875 -32.578125 C 3.328125 -33.066406 3.785156 -33.585938 4.296875 -34.140625 C 4.804688 -34.691406 5.328125 -34.984375 5.859375 -35.015625 C 6.390625 -35.054688 6.96875 -34.882812 7.59375 -34.5 C 8.226562 -34.113281 8.769531 -33.675781 9.21875 -33.1875 C 9.582031 -32.78125 9.851562 -32.257812 10.03125 -31.625 C 10.21875 -31 10.429688 -30.363281 10.671875 -29.71875 C 14.578125 -31.832031 18.441406 -31.910156 22.265625 -29.953125 C 23.523438 -29.347656 24.601562 -28.578125 25.5 -27.640625 C 26.394531 -26.703125 27.023438 -25.5625 27.390625 -24.21875 Z M 27.390625 -24.21875 "/></g></g></g><g fill="#000000" fill-opacity="1"><g transform="translate(134.33381, 320.14873)"><g><path d="M 11.34375 -26.046875 C 11.34375 -25.359375 11.34375 -24.351562 11.34375 -23.03125 C 11.34375 -21.707031 11.332031 -20.289062 11.3125 -18.78125 C 11.289062 -17.28125 11.269531 -15.921875 11.25 -14.703125 C 11.238281 -13.484375 11.234375 -12.628906 11.234375 -12.140625 C 11.191406 -11.535156 11.140625 -10.925781 11.078125 -10.3125 C 11.015625 -9.695312 10.921875 -9.085938 10.796875 -8.484375 C 10.515625 -6.859375 9.945312 -5.609375 9.09375 -4.734375 C 8.238281 -3.859375 7.257812 -3.457031 6.15625 -3.53125 C 5.0625 -3.613281 4.109375 -4.125 3.296875 -5.0625 C 2.484375 -6 2.15625 -7.257812 2.3125 -8.84375 C 2.5625 -11.851562 2.929688 -14.851562 3.421875 -17.84375 C 3.910156 -20.832031 4.414062 -23.832031 4.9375 -26.84375 C 5.101562 -27.65625 5.5 -28.304688 6.125 -28.796875 C 6.757812 -29.285156 7.546875 -29.46875 8.484375 -29.34375 C 9.421875 -29.257812 10.117188 -28.898438 10.578125 -28.265625 C 11.046875 -27.640625 11.300781 -26.898438 11.34375 -26.046875 Z M 6.765625 -34.59375 C 5.796875 -34.632812 4.972656 -35.03125 4.296875 -35.78125 C 3.628906 -36.539062 3.296875 -37.445312 3.296875 -38.5 C 3.296875 -39.5625 3.660156 -40.46875 4.390625 -41.21875 C 5.117188 -41.96875 6.015625 -42.34375 7.078125 -42.34375 C 8.097656 -42.34375 8.960938 -41.984375 9.671875 -41.265625 C 10.378906 -40.554688 10.710938 -39.675781 10.671875 -38.625 C 10.671875 -37.519531 10.273438 -36.5625 9.484375 -35.75 C 8.691406 -34.9375 7.785156 -34.550781 6.765625 -34.59375 Z M 6.765625 -34.59375 "/></g></g></g><g fill="#000000" fill-opacity="1"><g transform="translate(147.999543, 320.14873)"><g><path d="M 28.125 -26.421875 C 30.082031 -23.773438 31.273438 -20.96875 31.703125 -18 C 32.128906 -15.03125 32.097656 -11.976562 31.609375 -8.84375 C 31.398438 -7.625 30.890625 -6.664062 30.078125 -5.96875 C 29.265625 -5.28125 28.347656 -4.914062 27.328125 -4.875 C 26.273438 -4.832031 25.289062 -5.117188 24.375 -5.734375 C 23.457031 -6.347656 22.859375 -7.265625 22.578125 -8.484375 C 22.210938 -9.898438 21.945312 -11.34375 21.78125 -12.8125 C 21.613281 -14.28125 21.429688 -15.742188 21.234375 -17.203125 C 21.148438 -17.734375 21.054688 -18.28125 20.953125 -18.84375 C 20.859375 -19.414062 20.75 -20.09375 20.625 -20.875 C 20.175781 -20.5 19.785156 -20.191406 19.453125 -19.953125 C 19.128906 -19.710938 18.867188 -19.445312 18.671875 -19.15625 C 17.328125 -17.445312 16.113281 -15.664062 15.03125 -13.8125 C 13.957031 -11.96875 13.15625 -9.96875 12.625 -7.8125 C 12.257812 -6.257812 11.554688 -5.085938 10.515625 -4.296875 C 9.484375 -3.503906 8.296875 -3.171875 6.953125 -3.296875 C 5.609375 -3.453125 4.476562 -4.03125 3.5625 -5.03125 C 2.65625 -6.03125 2.21875 -7.320312 2.25 -8.90625 C 2.332031 -11.71875 2.460938 -14.515625 2.640625 -17.296875 C 2.828125 -20.085938 3.046875 -22.882812 3.296875 -25.6875 C 3.378906 -26.707031 3.644531 -27.632812 4.09375 -28.46875 C 4.539062 -29.300781 5.394531 -29.738281 6.65625 -29.78125 C 7.789062 -29.820312 8.625 -29.472656 9.15625 -28.734375 C 9.6875 -28.003906 10.09375 -27.148438 10.375 -26.171875 C 10.414062 -26.015625 10.472656 -25.851562 10.546875 -25.6875 C 10.628906 -25.519531 10.710938 -25.296875 10.796875 -25.015625 C 11.523438 -25.628906 12.207031 -26.226562 12.84375 -26.8125 C 13.476562 -27.40625 14.117188 -27.925781 14.765625 -28.375 C 17.085938 -30.039062 19.46875 -30.703125 21.90625 -30.359375 C 24.34375 -30.015625 26.414062 -28.703125 28.125 -26.421875 Z M 28.125 -26.421875 "/></g></g></g><g fill="#000000" fill-opacity="1"><g transform="translate(182.285891, 320.14873)"><g><path d="M 25.5 -10.609375 C 25.832031 -9.679688 25.851562 -8.828125 25.5625 -8.046875 C 25.28125 -7.273438 24.789062 -6.566406 24.09375 -5.921875 C 23.082031 -4.984375 21.800781 -4.347656 20.25 -4.015625 C 18.707031 -3.691406 17.125 -3.660156 15.5 -3.921875 C 13.875 -4.191406 12.46875 -4.796875 11.28125 -5.734375 C 8.4375 -7.890625 6.832031 -10.757812 6.46875 -14.34375 C 6.300781 -15.5625 6.195312 -16.800781 6.15625 -18.0625 C 6.113281 -19.320312 6.078125 -20.5625 6.046875 -21.78125 C 6.046875 -22.394531 5.953125 -22.894531 5.765625 -23.28125 C 5.578125 -23.664062 5.203125 -23.957031 4.640625 -24.15625 C 3.828125 -24.488281 3.1875 -24.957031 2.71875 -25.5625 C 2.25 -26.175781 2.132812 -26.890625 2.375 -27.703125 C 2.582031 -28.304688 2.9375 -28.90625 3.4375 -29.5 C 3.945312 -30.09375 4.488281 -30.488281 5.0625 -30.6875 C 5.789062 -31.007812 6.347656 -31.375 6.734375 -31.78125 C 7.128906 -32.195312 7.347656 -32.8125 7.390625 -33.625 C 7.421875 -34.351562 7.507812 -35.070312 7.65625 -35.78125 C 7.800781 -36.5 7.929688 -37.222656 8.046875 -37.953125 C 8.492188 -40.429688 9.570312 -41.648438 11.28125 -41.609375 C 13.03125 -41.566406 14.085938 -40.304688 14.453125 -37.828125 C 14.578125 -36.972656 14.648438 -36.109375 14.671875 -35.234375 C 14.691406 -34.359375 14.703125 -33.492188 14.703125 -32.640625 C 14.703125 -31.503906 15.269531 -30.914062 16.40625 -30.875 C 17.144531 -30.832031 17.878906 -30.78125 18.609375 -30.71875 C 19.335938 -30.65625 20.050781 -30.546875 20.75 -30.390625 C 21.882812 -30.097656 22.753906 -29.515625 23.359375 -28.640625 C 23.972656 -27.765625 24.238281 -26.820312 24.15625 -25.8125 C 24.082031 -24.75 23.65625 -23.84375 22.875 -23.09375 C 22.101562 -22.34375 21.148438 -21.925781 20.015625 -21.84375 C 19.203125 -21.757812 18.359375 -21.726562 17.484375 -21.75 C 16.609375 -21.769531 15.597656 -21.78125 14.453125 -21.78125 C 14.617188 -20.5625 14.765625 -19.332031 14.890625 -18.09375 C 15.015625 -16.851562 15.175781 -15.625 15.375 -14.40625 C 15.539062 -13.664062 15.894531 -13.132812 16.4375 -12.8125 C 16.988281 -12.488281 17.628906 -12.367188 18.359375 -12.453125 C 18.847656 -12.523438 19.328125 -12.613281 19.796875 -12.71875 C 20.265625 -12.820312 20.742188 -12.894531 21.234375 -12.9375 C 22.171875 -13.019531 23.015625 -12.882812 23.765625 -12.53125 C 24.515625 -12.1875 25.09375 -11.546875 25.5 -10.609375 Z M 25.5 -10.609375 "/></g></g></g><g fill="#000000" fill-opacity="1"><g transform="translate(210.349446, 320.14873)"><g/></g></g><g fill="#000000" fill-opacity="1"><g transform="translate(227.858665, 320.14873)"><g><path d="M 19.21875 -12.75 C 19.257812 -12.664062 19.300781 -12.570312 19.34375 -12.46875 C 19.382812 -12.375 19.445312 -12.285156 19.53125 -12.203125 C 20.09375 -12.203125 20.671875 -12.222656 21.265625 -12.265625 C 21.859375 -12.304688 22.4375 -12.328125 23 -12.328125 C 23.851562 -12.367188 24.707031 -12.414062 25.5625 -12.46875 C 26.414062 -12.53125 27.25 -12.503906 28.0625 -12.390625 C 29.53125 -12.179688 30.722656 -11.523438 31.640625 -10.421875 C 32.554688 -9.328125 33.035156 -8.070312 33.078125 -6.65625 C 33.078125 -5.1875 32.664062 -3.84375 31.84375 -2.625 C 31.03125 -1.40625 29.894531 -0.734375 28.4375 -0.609375 C 24.851562 -0.328125 21.257812 -0.125 17.65625 0 C 14.0625 0.125 10.492188 -0.320312 6.953125 -1.34375 C 5.523438 -1.789062 4.40625 -2.5 3.59375 -3.46875 C 2.78125 -4.445312 2.332031 -5.578125 2.25 -6.859375 C 2.175781 -8.140625 2.503906 -9.429688 3.234375 -10.734375 C 3.921875 -11.992188 4.710938 -13.203125 5.609375 -14.359375 C 6.503906 -15.523438 7.421875 -16.65625 8.359375 -17.75 C 10.109375 -19.832031 11.882812 -21.890625 13.6875 -23.921875 C 15.5 -25.953125 17.28125 -28.003906 19.03125 -30.078125 C 19.40625 -30.566406 19.671875 -31.132812 19.828125 -31.78125 C 19.992188 -32.4375 20.175781 -33.070312 20.375 -33.6875 C 19.6875 -33.800781 19.003906 -33.941406 18.328125 -34.109375 C 17.660156 -34.273438 17.003906 -34.335938 16.359375 -34.296875 C 15.335938 -34.253906 14.328125 -34.109375 13.328125 -33.859375 C 12.335938 -33.617188 11.351562 -33.4375 10.375 -33.3125 C 9.3125 -33.1875 8.34375 -33.265625 7.46875 -33.546875 C 6.59375 -33.835938 5.953125 -34.550781 5.546875 -35.6875 C 5.179688 -36.75 5.242188 -37.675781 5.734375 -38.46875 C 6.222656 -39.257812 6.894531 -39.859375 7.75 -40.265625 C 9.289062 -41.035156 10.832031 -41.785156 12.375 -42.515625 C 13.925781 -43.253906 15.492188 -43.847656 17.078125 -44.296875 C 19.765625 -45.023438 22.1875 -44.910156 24.34375 -43.953125 C 26.5 -43.003906 28.390625 -41.429688 30.015625 -39.234375 C 31.566406 -37.078125 32.359375 -34.835938 32.390625 -32.515625 C 32.429688 -30.203125 31.660156 -27.90625 30.078125 -25.625 C 28.898438 -23.914062 27.609375 -22.296875 26.203125 -20.765625 C 24.796875 -19.242188 23.425781 -17.710938 22.09375 -16.171875 C 21.601562 -15.597656 21.125 -15.023438 20.65625 -14.453125 C 20.1875 -13.890625 19.707031 -13.320312 19.21875 -12.75 Z M 19.21875 -12.75 "/></g></g></g><g fill="#000000" fill-opacity="1"><g transform="translate(263.182146, 320.14873)"><g><path d="M 16.296875 -35.078125 C 16.296875 -34.304688 16.273438 -33.117188 16.234375 -31.515625 C 16.191406 -29.910156 16.117188 -28.097656 16.015625 -26.078125 C 15.910156 -24.066406 15.804688 -22.035156 15.703125 -19.984375 C 15.609375 -17.929688 15.519531 -16.066406 15.4375 -14.390625 C 15.351562 -12.722656 15.3125 -11.445312 15.3125 -10.5625 C 15.269531 -8.96875 14.941406 -7.476562 14.328125 -6.09375 C 13.722656 -4.71875 12.769531 -3.5 11.46875 -2.4375 C 9.3125 -0.644531 7.238281 -0.707031 5.25 -2.625 C 4.3125 -3.519531 3.578125 -4.492188 3.046875 -5.546875 C 2.515625 -6.609375 2.25 -7.769531 2.25 -9.03125 C 2.332031 -13.582031 2.546875 -18.113281 2.890625 -22.625 C 3.242188 -27.144531 3.988281 -31.625 5.125 -36.0625 C 5.332031 -36.875 5.566406 -37.695312 5.828125 -38.53125 C 6.085938 -39.363281 6.484375 -40.085938 7.015625 -40.703125 C 7.546875 -41.304688 8.207031 -41.84375 9 -42.3125 C 9.789062 -42.78125 10.570312 -43.078125 11.34375 -43.203125 C 12.363281 -43.359375 13.226562 -43.109375 13.9375 -42.453125 C 14.65625 -41.804688 15.175781 -41.019531 15.5 -40.09375 C 15.738281 -39.269531 15.921875 -38.429688 16.046875 -37.578125 C 16.171875 -36.722656 16.253906 -35.890625 16.296875 -35.078125 Z M 16.296875 -35.078125 "/></g></g></g><g fill="#000000" fill-opacity="1"><g transform="translate(281.728508, 320.14873)"><g><path d="M 19.21875 -12.75 C 19.257812 -12.664062 19.300781 -12.570312 19.34375 -12.46875 C 19.382812 -12.375 19.445312 -12.285156 19.53125 -12.203125 C 20.09375 -12.203125 20.671875 -12.222656 21.265625 -12.265625 C 21.859375 -12.304688 22.4375 -12.328125 23 -12.328125 C 23.851562 -12.367188 24.707031 -12.414062 25.5625 -12.46875 C 26.414062 -12.53125 27.25 -12.503906 28.0625 -12.390625 C 29.53125 -12.179688 30.722656 -11.523438 31.640625 -10.421875 C 32.554688 -9.328125 33.035156 -8.070312 33.078125 -6.65625 C 33.078125 -5.1875 32.664062 -3.84375 31.84375 -2.625 C 31.03125 -1.40625 29.894531 -0.734375 28.4375 -0.609375 C 24.851562 -0.328125 21.257812 -0.125 17.65625 0 C 14.0625 0.125 10.492188 -0.320312 6.953125 -1.34375 C 5.523438 -1.789062 4.40625 -2.5 3.59375 -3.46875 C 2.78125 -4.445312 2.332031 -5.578125 2.25 -6.859375 C 2.175781 -8.140625 2.503906 -9.429688 3.234375 -10.734375 C 3.921875 -11.992188 4.710938 -13.203125 5.609375 -14.359375 C 6.503906 -15.523438 7.421875 -16.65625 8.359375 -17.75 C 10.109375 -19.832031 11.882812 -21.890625 13.6875 -23.921875 C 15.5 -25.953125 17.28125 -28.003906 19.03125 -30.078125 C 19.40625 -30.566406 19.671875 -31.132812 19.828125 -31.78125 C 19.992188 -32.4375 20.175781 -33.070312 20.375 -33.6875 C 19.6875 -33.800781 19.003906 -33.941406 18.328125 -34.109375 C 17.660156 -34.273438 17.003906 -34.335938 16.359375 -34.296875 C 15.335938 -34.253906 14.328125 -34.109375 13.328125 -33.859375 C 12.335938 -33.617188 11.351562 -33.4375 10.375 -33.3125 C 9.3125 -33.1875 8.34375 -33.265625 7.46875 -33.546875 C 6.59375 -33.835938 5.953125 -34.550781 5.546875 -35.6875 C 5.179688 -36.75 5.242188 -37.675781 5.734375 -38.46875 C 6.222656 -39.257812 6.894531 -39.859375 7.75 -40.265625 C 9.289062 -41.035156 10.832031 -41.785156 12.375 -42.515625 C 13.925781 -43.253906 15.492188 -43.847656 17.078125 -44.296875 C 19.765625 -45.023438 22.1875 -44.910156 24.34375 -43.953125 C 26.5 -43.003906 28.390625 -41.429688 30.015625 -39.234375 C 31.566406 -37.078125 32.359375 -34.835938 32.390625 -32.515625 C 32.429688 -30.203125 31.660156 -27.90625 30.078125 -25.625 C 28.898438 -23.914062 27.609375 -22.296875 26.203125 -20.765625 C 24.796875 -19.242188 23.425781 -17.710938 22.09375 -16.171875 C 21.601562 -15.597656 21.125 -15.023438 20.65625 -14.453125 C 20.1875 -13.890625 19.707031 -13.320312 19.21875 -12.75 Z M 19.21875 -12.75 "/></g></g></g></svg>